<?xml version="1.0" encoding="UTF-8" standalone="no"?>
<svg xmlns="http://www.w3.org/2000/svg" width="330.378" height="57.29" viewBox="0 0 330.378 57.29">
    <defs>
        <linearGradient id="f463rukn2a" y1=".5" x2="1" y2=".5" gradientUnits="objectBoundingBox">
            <stop offset="0" stop-color="#eccde2"/>
            <stop offset=".143" stop-color="#f5ccd6"/>
            <stop offset=".286" stop-color="#f8ccca"/>
            <stop offset=".429" stop-color="#f6cebf"/>
            <stop offset=".571" stop-color="#eed2b7"/>
            <stop offset=".714" stop-color="#e1d7b5"/>
            <stop offset=".857" stop-color="#d2dcb8"/>
            <stop offset="1" stop-color="#c1e0c2"/>
        </linearGradient>
    </defs>
    <g data-name="Group 5640">
        <g data-name="Group 5637">
            <path data-name="Path 165" d="M133.745 45.647a3.006 3.006 0 0 1-1.594-.4 1.544 1.544 0 0 1-.643-1.425 1.48 1.48 0 0 1 .663-1.4 3.139 3.139 0 0 1 1.575-.378h25.562a2.971 2.971 0 0 1 1.594.4 1.532 1.532 0 0 1 .645 1.421 1.472 1.472 0 0 1-.665 1.4 3.115 3.115 0 0 1-1.575.38zm124.61 14.079a4.514 4.514 0 0 1-2.582-.74 7.4 7.4 0 0 1-1.917-1.9 15.708 15.708 0 0 1-1.385-2.372 19.367 19.367 0 0 1-1.481-4.725 44.123 44.123 0 0 1-.663-5.351q-.173-2.714-.171-4.99 0-1.516.038-3t.075-3q.037-.683.134-1.5a3.086 3.086 0 0 1 .492-1.4 1.467 1.467 0 0 1 1.31-.588q1.743 0 1.746 1.859 0 1.213-.1 2.466t-.094 2.466q0 .683.019 2.3t.113 3.7q.1 2.086.361 4.251a29.591 29.591 0 0 0 .759 4.022 9.41 9.41 0 0 0 1.308 3.018 2.387 2.387 0 0 0 1.994 1.158 1.9 1.9 0 0 0 1.556-.7 5.428 5.428 0 0 0 .91-1.727q.343-1.023.665-2.069a6.142 6.142 0 0 1 .816-1.746 1.579 1.579 0 0 1 1.366-.7q1.821 0 1.821 1.746a8.307 8.307 0 0 1-.626 3.092 24.173 24.173 0 0 1-1.346 2.866 9.23 9.23 0 0 1-2.069 2.524 4.567 4.567 0 0 1-3.048 1.04zm22.124-7.666a1.383 1.383 0 0 1-1.366-.778 5.3 5.3 0 0 1-.494-1.613 45.513 45.513 0 0 0-.91-4.762 41.064 41.064 0 0 0-1.517-4.877 20.874 20.874 0 0 0-2.2-4.289c-.127-.2-.3-.469-.513-.8a9.788 9.788 0 0 1-.588-1.026 2.05 2.05 0 0 1-.267-.872 1.35 1.35 0 0 1 .476-1.176 2.051 2.051 0 0 1 1.233-.342 1.611 1.611 0 0 1 1.024.455 6.875 6.875 0 0 1 1.024 1.12 14.9 14.9 0 0 1 .874 1.308q.377.648.569.987.683 1.253 1.5 3.15t1.517 4.022q.7 2.126 1.158 4.08a15.057 15.057 0 0 1 .455 3.321q0 2.093-1.975 2.092zm-53.836-23.992-4.22.613 3.054 2.977-.722 4.2 3.776-1.984 3.774 1.984-.72-4.2 3.054-2.977-4.222-.613-1.886-3.824zm-9.166 16.44.72-9.867v-.152a1 1 0 0 0-.607-1.043 3.293 3.293 0 0 0-1.252-.248 1.442 1.442 0 0 0-1.329.609 3.291 3.291 0 0 0-.455 1.479l-.834 12.866v.19a1.192 1.192 0 0 0 .53 1.137 2.474 2.474 0 0 0 1.252.3 1.574 1.574 0 0 0 .855-.227c.238-.152.486-.317.739-.494m-115.88-9.906V30.58a2.809 2.809 0 0 0-.4-1.537 1.512 1.512 0 0 0-1.385-.626 1.465 1.465 0 0 0-1.368.626 2.907 2.907 0 0 0-.378 1.537v22.087q0 3.567 1.973 5.048a8.65 8.65 0 0 0 5.313 1.479h16.281a2.846 2.846 0 0 0 1.5-.378 1.427 1.427 0 0 0 .628-1.329 1.464 1.464 0 0 0-.628-1.366 2.829 2.829 0 0 0-1.5-.38h-15.52a5.641 5.641 0 0 1-3.434-.834q-1.08-.836-1.081-3.34V42.5m-34.388-4.9v-7.779a3.115 3.115 0 0 0-.38-1.575 1.477 1.477 0 0 0-1.4-.665 1.54 1.54 0 0 0-1.423.645 2.988 2.988 0 0 0-.4 1.594v28.8a2.891 2.891 0 0 0 .4 1.575 1.559 1.559 0 0 0 1.423.626 1.489 1.489 0 0 0 1.4-.645 3.013 3.013 0 0 0 .38-1.556V37.6zM33.46 41c.033-.722.052-1.448.052-2.182a2.946 2.946 0 0 0-.417-1.631 1.628 1.628 0 0 0-1.481-.645 1.662 1.662 0 0 0-1.385.549 2.292 2.292 0 0 0-.436 1.462q0 .951.058 1.9c.038.632.056 1.277.056 1.936a14.832 14.832 0 0 1-2.22 8.386 15.989 15.989 0 0 1-6.734 5.465 9.64 9.64 0 0 0-1.387.778 1.524 1.524 0 0 0-.778 1.31 1.645 1.645 0 0 0 1.861 1.859 4.074 4.074 0 0 0 1.669-.417 14.494 14.494 0 0 0 1.765-.968q.853-.55 1.421-.93a21.415 21.415 0 0 0 4.877-4.65 14.715 14.715 0 0 0 2.6-6.2M186.692 40.6c.127-.279.328-.789.607-1.539s.588-1.585.93-2.522.67-1.865.987-2.789.582-1.727.8-2.411a6.226 6.226 0 0 0 .323-1.291 1.354 1.354 0 0 0-.874-1.423 5.145 5.145 0 0 0-1.782-.323h-10.819a2.8 2.8 0 0 0-1.423.342 1.366 1.366 0 0 0-.588 1.291 1.366 1.366 0 0 0 .588 1.291 2.8 2.8 0 0 0 1.423.342h9.147a.906.906 0 0 1 .246.058c.113.036.144.106.094.207q-.683 2.164-1.443 4.289t-1.556 4.249a20.991 20.991 0 0 0-4.706.7 14.858 14.858 0 0 0-4.287 1.879 9.83 9.83 0 0 0-3.114 3.206 8.934 8.934 0 0 0-1.176 4.689 7.17 7.17 0 0 0 .551 2.77 5.3 5.3 0 0 0 1.631 2.182 4.458 4.458 0 0 0 5.029.152 11.045 11.045 0 0 0 1.9-1.575 13.768 13.768 0 0 0 1.65-2.2q.856-1.366 1.71-2.941t1.575-3.054q.72-1.481 1.214-2.507m-4.176 1.577q-.568 1.155-1.327 2.541t-1.613 2.637A12.89 12.89 0 0 1 176.5 52.5a2.426 2.426 0 0 1-1.613.816 1.369 1.369 0 0 1-1.4-.8 4.213 4.213 0 0 1-.342-1.669 6.1 6.1 0 0 1 1.31-4.063 8.162 8.162 0 0 1 3.34-2.351 14.114 14.114 0 0 1 4.193-.951q-.267.611-.837 1.767zm22.564.624a6.432 6.432 0 0 0-1.235-.91 13.393 13.393 0 0 0-1.423-.72c-.469-.2-.841-.353-1.12-.455l.494-5.086a1.4 1.4 0 0 0-.436-1.272 1.9 1.9 0 0 0-1.272-.436 2.2 2.2 0 0 0-.8.133 1.138 1.138 0 0 0-.569.551 3.1 3.1 0 0 0-.265.947q-.115.686-.171 1.5c-.038.546-.069 1.056-.1 1.537s-.05.836-.075 1.064q-2.429-.761-4.954-1.329a17.928 17.928 0 0 0-1.925-.521l-1.312 3.106c1.081.161 1.243.342 2.307.565a40.538 40.538 0 0 1 5.39 1.517 15.973 15.973 0 0 1-2.524 6.2 15.421 15.421 0 0 1-4.877 4.612c-.227.127-.513.3-.853.532a5.906 5.906 0 0 0-.93.759 1.263 1.263 0 0 0-.419.91 1.493 1.493 0 0 0 1.669 1.708 3.239 3.239 0 0 0 1.444-.38 11.035 11.035 0 0 0 1.479-.891q.72-.51 1.214-.891a18.235 18.235 0 0 0 4.46-5.067 21.493 21.493 0 0 0 2.409-6.281 8.475 8.475 0 0 1 .987.438c.43.213.861.417 1.291.607a2.741 2.741 0 0 0 .949.284 1.573 1.573 0 0 0 1.158-2.733zm-81.26-18.918a1.679 1.679 0 1 1-1.679 1.679 1.681 1.681 0 0 1 1.679-1.679m0-3.359a5.037 5.037 0 1 0 5.036 5.038 5.037 5.037 0 0 0-5.036-5.038zm-75.167 7.5a3.205 3.205 0 0 0-2.389-.968H18.674a3 3 0 0 0-1.462.342 1.372 1.372 0 0 0-.624 1.327 1.44 1.44 0 0 0 .607 1.329 2.743 2.743 0 0 0 1.479.378h24.25a1.981 1.981 0 0 1 .93.209.831.831 0 0 1 .4.816 3.976 3.976 0 0 1-.816 2.24 12.061 12.061 0 0 1-2.107 2.276 22.662 22.662 0 0 1-2.789 2.03 25.147 25.147 0 0 1-2.742 1.481l-.24 3.494c1.222-.482 2.438-1 3.642-1.581a18.079 18.079 0 0 0 5.39-3.947 25.863 25.863 0 0 0 1.708-2.067 12.239 12.239 0 0 0 1.385-2.372 6.358 6.358 0 0 0 .549-2.582 3.3 3.3 0 0 0-.946-2.408zm35.043 14.9A17.921 17.921 0 0 0 79.694 44q-1.634-1.046-3.567-2.071t-3.8-1.9a127.437 127.437 0 0 0-2.753-1.256v3.571a37.821 37.821 0 0 1 3.586 1.879 48.443 48.443 0 0 1 5.74 4.042 13.3 13.3 0 0 0 1.137.836 2.357 2.357 0 0 0 1.291.455 2.144 2.144 0 0 0 1.481-.474 1.814 1.814 0 0 0 .53-1.423 2.564 2.564 0 0 0-1.008-1.67zM119.889 35.7a5.138 5.138 0 0 0-.891.152q-.666.153-1.5.38c-.557.152-1.068.292-1.537.417s-.778.215-.93.265A52.973 52.973 0 0 1 108.2 38.3c-1.268.171-2.534.319-3.8.467v3.344c1.579-.192 3.158-.384 4.746-.567q3.985-.455 7.894-1.291.418-.075 1.214-.265a11.849 11.849 0 0 0 1.613-.513 5.319 5.319 0 0 0 1.385-.778 1.333 1.333 0 0 0 .57-1.062 1.711 1.711 0 0 0-1.933-1.935zm120.3 9.337a6.861 6.861 0 0 0-2.428-2.637 10.319 10.319 0 0 0-3.529-1.366 21.478 21.478 0 0 0-4.233-.4 19.707 19.707 0 0 0-6.508 1.1c-.968.336-1.9.726-2.826 1.145l-.678 4.07v.123a29.877 29.877 0 0 1 3.258-1.752 16.684 16.684 0 0 1 7.021-1.423 12.385 12.385 0 0 1 3.415.455 5.114 5.114 0 0 1 2.562 1.594 4.909 4.909 0 0 1 .968 3.263 5.563 5.563 0 0 1-.91 3.225 7.277 7.277 0 0 1-2.43 2.2 13.411 13.411 0 0 1-3.321 1.348 22.6 22.6 0 0 1-3.586.645q-1.786.17-3.225.171c-.482 0-.962-.008-1.443-.019s-.974-.021-1.481-.021a2.674 2.674 0 0 0-1.423.363 1.408 1.408 0 0 0-.588 1.308 1.547 1.547 0 0 0 .8 1.556 4.086 4.086 0 0 0 1.784.38q2.236 0 4.894-.209a35.55 35.55 0 0 0 5.276-.816 17.661 17.661 0 0 0 4.762-1.821 9.787 9.787 0 0 0 3.454-3.244 9.1 9.1 0 0 0 1.31-5.029 8.875 8.875 0 0 0-.895-4.206z" transform="translate(-14.654 -3.537)" style="fill:url(#f463rukn2a)"/>
            <path data-name="Path 166" d="M133.745 45.647a3.006 3.006 0 0 1-1.594-.4 1.544 1.544 0 0 1-.643-1.425 1.48 1.48 0 0 1 .663-1.4 3.139 3.139 0 0 1 1.575-.378h25.562a2.971 2.971 0 0 1 1.594.4 1.532 1.532 0 0 1 .645 1.421 1.472 1.472 0 0 1-.665 1.4 3.115 3.115 0 0 1-1.575.38zm124.61 14.079a4.514 4.514 0 0 1-2.582-.74 7.4 7.4 0 0 1-1.917-1.9 15.708 15.708 0 0 1-1.385-2.372 19.367 19.367 0 0 1-1.481-4.725 44.123 44.123 0 0 1-.663-5.351q-.173-2.714-.171-4.99 0-1.516.038-3t.075-3q.037-.683.134-1.5a3.086 3.086 0 0 1 .492-1.4 1.467 1.467 0 0 1 1.31-.588q1.743 0 1.746 1.859 0 1.213-.1 2.466t-.094 2.466q0 .683.019 2.3t.113 3.7q.1 2.086.361 4.251a29.591 29.591 0 0 0 .759 4.022 9.41 9.41 0 0 0 1.308 3.018 2.387 2.387 0 0 0 1.994 1.158 1.9 1.9 0 0 0 1.556-.7 5.428 5.428 0 0 0 .91-1.727q.343-1.023.665-2.069a6.142 6.142 0 0 1 .816-1.746 1.579 1.579 0 0 1 1.366-.7q1.821 0 1.821 1.746a8.307 8.307 0 0 1-.626 3.092 24.173 24.173 0 0 1-1.346 2.866 9.23 9.23 0 0 1-2.069 2.524 4.567 4.567 0 0 1-3.048 1.04zm22.124-7.666a1.383 1.383 0 0 1-1.366-.778 5.3 5.3 0 0 1-.494-1.613 45.513 45.513 0 0 0-.91-4.762 41.064 41.064 0 0 0-1.517-4.877 20.874 20.874 0 0 0-2.2-4.289c-.127-.2-.3-.469-.513-.8a9.788 9.788 0 0 1-.588-1.026 2.05 2.05 0 0 1-.267-.872 1.35 1.35 0 0 1 .476-1.176 2.051 2.051 0 0 1 1.233-.342 1.611 1.611 0 0 1 1.024.455 6.875 6.875 0 0 1 1.024 1.12 14.9 14.9 0 0 1 .874 1.308q.377.648.569.987.683 1.253 1.5 3.15t1.517 4.022q.7 2.126 1.158 4.08a15.057 15.057 0 0 1 .455 3.321q0 2.093-1.975 2.092zm-53.836-23.992-4.22.613 3.054 2.977-.722 4.2 3.776-1.984 3.774 1.984-.72-4.2 3.054-2.977-4.222-.613-1.886-3.824zm-9.166 16.44.72-9.867v-.152a1 1 0 0 0-.607-1.043 3.293 3.293 0 0 0-1.252-.248 1.442 1.442 0 0 0-1.329.609 3.291 3.291 0 0 0-.455 1.479l-.834 12.866v.19a1.192 1.192 0 0 0 .53 1.137 2.474 2.474 0 0 0 1.252.3 1.574 1.574 0 0 0 .855-.227c.238-.152.486-.317.739-.494m-115.88-9.906V30.58a2.809 2.809 0 0 0-.4-1.537 1.512 1.512 0 0 0-1.385-.626 1.465 1.465 0 0 0-1.368.626 2.907 2.907 0 0 0-.378 1.537v22.087q0 3.567 1.973 5.048a8.65 8.65 0 0 0 5.313 1.479h16.281a2.846 2.846 0 0 0 1.5-.378 1.427 1.427 0 0 0 .628-1.329 1.464 1.464 0 0 0-.628-1.366 2.829 2.829 0 0 0-1.5-.38h-15.52a5.641 5.641 0 0 1-3.434-.834q-1.08-.836-1.081-3.34V42.5m-34.388-4.9v-7.779a3.115 3.115 0 0 0-.38-1.575 1.477 1.477 0 0 0-1.4-.665 1.54 1.54 0 0 0-1.423.645 2.988 2.988 0 0 0-.4 1.594v28.8a2.891 2.891 0 0 0 .4 1.575 1.559 1.559 0 0 0 1.423.626 1.489 1.489 0 0 0 1.4-.645 3.013 3.013 0 0 0 .38-1.556V37.6zM33.46 41c.033-.722.052-1.448.052-2.182a2.946 2.946 0 0 0-.417-1.631 1.628 1.628 0 0 0-1.481-.645 1.662 1.662 0 0 0-1.385.549 2.292 2.292 0 0 0-.436 1.462q0 .951.058 1.9c.038.632.056 1.277.056 1.936a14.832 14.832 0 0 1-2.22 8.386 15.989 15.989 0 0 1-6.734 5.465 9.64 9.64 0 0 0-1.387.778 1.524 1.524 0 0 0-.778 1.31 1.645 1.645 0 0 0 1.861 1.859 4.074 4.074 0 0 0 1.669-.417 14.494 14.494 0 0 0 1.765-.968q.853-.55 1.421-.93a21.415 21.415 0 0 0 4.877-4.65 14.715 14.715 0 0 0 2.6-6.2M186.692 40.6c.127-.279.328-.789.607-1.539s.588-1.585.93-2.522.67-1.865.987-2.789.582-1.727.8-2.411a6.226 6.226 0 0 0 .323-1.291 1.354 1.354 0 0 0-.874-1.423 5.145 5.145 0 0 0-1.782-.323h-10.819a2.8 2.8 0 0 0-1.423.342 1.366 1.366 0 0 0-.588 1.291 1.366 1.366 0 0 0 .588 1.291 2.8 2.8 0 0 0 1.423.342h9.147a.906.906 0 0 1 .246.058c.113.036.144.106.094.207q-.683 2.164-1.443 4.289t-1.556 4.249a20.991 20.991 0 0 0-4.706.7 14.858 14.858 0 0 0-4.287 1.879 9.83 9.83 0 0 0-3.114 3.206 8.934 8.934 0 0 0-1.176 4.689 7.17 7.17 0 0 0 .551 2.77 5.3 5.3 0 0 0 1.631 2.182 4.458 4.458 0 0 0 5.029.152 11.045 11.045 0 0 0 1.9-1.575 13.768 13.768 0 0 0 1.65-2.2q.856-1.366 1.71-2.941t1.575-3.054q.72-1.481 1.214-2.507m-4.176 1.577q-.568 1.155-1.327 2.541t-1.613 2.637A12.89 12.89 0 0 1 176.5 52.5a2.426 2.426 0 0 1-1.613.816 1.369 1.369 0 0 1-1.4-.8 4.213 4.213 0 0 1-.342-1.669 6.1 6.1 0 0 1 1.31-4.063 8.162 8.162 0 0 1 3.34-2.351 14.114 14.114 0 0 1 4.193-.951q-.267.611-.837 1.767zm22.564.624a6.432 6.432 0 0 0-1.235-.91 13.393 13.393 0 0 0-1.423-.72c-.469-.2-.841-.353-1.12-.455l.494-5.086a1.4 1.4 0 0 0-.436-1.272 1.9 1.9 0 0 0-1.272-.436 2.2 2.2 0 0 0-.8.133 1.138 1.138 0 0 0-.569.551 3.1 3.1 0 0 0-.265.947q-.115.686-.171 1.5c-.038.546-.069 1.056-.1 1.537s-.05.836-.075 1.064q-2.429-.761-4.954-1.329a17.928 17.928 0 0 0-1.925-.521l-1.312 3.106c1.081.161 1.243.342 2.307.565a40.538 40.538 0 0 1 5.39 1.517 15.973 15.973 0 0 1-2.524 6.2 15.421 15.421 0 0 1-4.877 4.612c-.227.127-.513.3-.853.532a5.906 5.906 0 0 0-.93.759 1.263 1.263 0 0 0-.419.91 1.493 1.493 0 0 0 1.669 1.708 3.239 3.239 0 0 0 1.444-.38 11.035 11.035 0 0 0 1.479-.891q.72-.51 1.214-.891a18.235 18.235 0 0 0 4.46-5.067 21.493 21.493 0 0 0 2.409-6.281 8.475 8.475 0 0 1 .987.438c.43.213.861.417 1.291.607a2.741 2.741 0 0 0 .949.284 1.573 1.573 0 0 0 1.158-2.733zm-81.26-18.918a1.679 1.679 0 1 1-1.679 1.679 1.681 1.681 0 0 1 1.679-1.679m0-3.359a5.037 5.037 0 1 0 5.036 5.038 5.037 5.037 0 0 0-5.036-5.038zm-75.167 7.5a3.205 3.205 0 0 0-2.389-.968H18.674a3 3 0 0 0-1.462.342 1.372 1.372 0 0 0-.624 1.327 1.44 1.44 0 0 0 .607 1.329 2.743 2.743 0 0 0 1.479.378h24.25a1.981 1.981 0 0 1 .93.209.831.831 0 0 1 .4.816 3.976 3.976 0 0 1-.816 2.24 12.061 12.061 0 0 1-2.107 2.276 22.662 22.662 0 0 1-2.789 2.03 25.147 25.147 0 0 1-2.742 1.481l-.24 3.494c1.222-.482 2.438-1 3.642-1.581a18.079 18.079 0 0 0 5.39-3.947 25.863 25.863 0 0 0 1.708-2.067 12.239 12.239 0 0 0 1.385-2.372 6.358 6.358 0 0 0 .549-2.582 3.3 3.3 0 0 0-.946-2.408zm35.043 14.9A17.921 17.921 0 0 0 79.694 44q-1.634-1.046-3.567-2.071t-3.8-1.9a127.437 127.437 0 0 0-2.753-1.256v3.571a37.821 37.821 0 0 1 3.586 1.879 48.443 48.443 0 0 1 5.74 4.042 13.3 13.3 0 0 0 1.137.836 2.357 2.357 0 0 0 1.291.455 2.144 2.144 0 0 0 1.481-.474 1.814 1.814 0 0 0 .53-1.423 2.564 2.564 0 0 0-1.008-1.67zM119.889 35.7a5.138 5.138 0 0 0-.891.152q-.666.153-1.5.38c-.557.152-1.068.292-1.537.417s-.778.215-.93.265A52.973 52.973 0 0 1 108.2 38.3c-1.268.171-2.534.319-3.8.467v3.344c1.579-.192 3.158-.384 4.746-.567q3.985-.455 7.894-1.291.418-.075 1.214-.265a11.849 11.849 0 0 0 1.613-.513 5.319 5.319 0 0 0 1.385-.778 1.333 1.333 0 0 0 .57-1.062 1.711 1.711 0 0 0-1.933-1.935zm120.3 9.337a6.861 6.861 0 0 0-2.428-2.637 10.319 10.319 0 0 0-3.529-1.366 21.478 21.478 0 0 0-4.233-.4 19.707 19.707 0 0 0-6.508 1.1c-.968.336-1.9.726-2.826 1.145l-.678 4.07v.123a29.877 29.877 0 0 1 3.258-1.752 16.684 16.684 0 0 1 7.021-1.423 12.385 12.385 0 0 1 3.415.455 5.114 5.114 0 0 1 2.562 1.594 4.909 4.909 0 0 1 .968 3.263 5.563 5.563 0 0 1-.91 3.225 7.277 7.277 0 0 1-2.43 2.2 13.411 13.411 0 0 1-3.321 1.348 22.6 22.6 0 0 1-3.586.645q-1.786.17-3.225.171c-.482 0-.962-.008-1.443-.019s-.974-.021-1.481-.021a2.674 2.674 0 0 0-1.423.363 1.408 1.408 0 0 0-.588 1.308 1.547 1.547 0 0 0 .8 1.556 4.086 4.086 0 0 0 1.784.38q2.236 0 4.894-.209a35.55 35.55 0 0 0 5.276-.816 17.661 17.661 0 0 0 4.762-1.821 9.787 9.787 0 0 0 3.454-3.244 9.1 9.1 0 0 0 1.31-5.029 8.875 8.875 0 0 0-.895-4.206z" transform="translate(-14.654 -3.537)" style="mix-blend-mode:color-burn;isolation:isolate;fill:url(#f463rukn2a)"/>
            <g data-name="Group 86">
                <path data-name="Path 167" d="M133.4 45.647a3.006 3.006 0 0 1-1.594-.4 1.541 1.541 0 0 1-.645-1.425 1.478 1.478 0 0 1 .665-1.4 3.134 3.134 0 0 1 1.575-.378h25.562a2.971 2.971 0 0 1 1.594.4 1.536 1.536 0 0 1 .645 1.421 1.475 1.475 0 0 1-.665 1.4 3.12 3.12 0 0 1-1.575.38zm124.608 14.079a4.5 4.5 0 0 1-2.58-.74 7.373 7.373 0 0 1-1.917-1.9 15.55 15.55 0 0 1-1.385-2.372 19.285 19.285 0 0 1-1.481-4.725 44.129 44.129 0 0 1-.663-5.351q-.173-2.714-.171-4.99 0-1.516.036-3t.077-3q.037-.683.133-1.5a3.088 3.088 0 0 1 .494-1.4 1.464 1.464 0 0 1 1.308-.588q1.746 0 1.746 1.859 0 1.213-.094 2.466t-.094 2.466q0 .683.017 2.3t.115 3.7q.092 2.086.361 4.251a29.6 29.6 0 0 0 .757 4.022 9.452 9.452 0 0 0 1.31 3.018 2.386 2.386 0 0 0 1.992 1.158 1.891 1.891 0 0 0 1.556-.7 5.43 5.43 0 0 0 .912-1.727q.34-1.023.663-2.069a6.247 6.247 0 0 1 .816-1.746 1.579 1.579 0 0 1 1.366-.7q1.824 0 1.823 1.746a8.346 8.346 0 0 1-.626 3.092 23.877 23.877 0 0 1-1.348 2.866 9.188 9.188 0 0 1-2.067 2.524 4.572 4.572 0 0 1-3.056 1.04zm22.126-7.666a1.383 1.383 0 0 1-1.366-.778 5.246 5.246 0 0 1-.494-1.613 46.017 46.017 0 0 0-.91-4.762 41.068 41.068 0 0 0-1.519-4.877 20.685 20.685 0 0 0-2.2-4.289l-.511-.8a9.466 9.466 0 0 1-.59-1.026 2.07 2.07 0 0 1-.265-.872 1.349 1.349 0 0 1 .474-1.176 2.059 2.059 0 0 1 1.233-.342 1.611 1.611 0 0 1 1.026.455 6.878 6.878 0 0 1 1.024 1.12 14.875 14.875 0 0 1 .872 1.308q.38.648.57.987.683 1.253 1.5 3.15t1.519 4.022q.7 2.126 1.156 4.08a15.059 15.059 0 0 1 .455 3.321q-.002 2.093-1.975 2.092zM226.3 28.068l-4.222.613 3.054 2.977-.72 4.2 3.774-1.984 3.776 1.984-.72-4.2 3.054-2.977-4.222-.613-1.888-3.824zm-9.168 16.44.722-9.867v-.152a1 1 0 0 0-.609-1.043 3.277 3.277 0 0 0-1.25-.248 1.439 1.439 0 0 0-1.329.609 3.267 3.267 0 0 0-.455 1.479l-.836 12.866v.19a1.193 1.193 0 0 0 .532 1.137 2.464 2.464 0 0 0 1.252.3 1.562 1.562 0 0 0 .853-.227c.24-.152.488-.317.74-.494m-115.881-9.902V30.58a2.81 2.81 0 0 0-.4-1.537 1.51 1.51 0 0 0-1.385-.626 1.461 1.461 0 0 0-1.366.626 2.908 2.908 0 0 0-.38 1.537v22.087q0 3.567 1.975 5.048a8.642 8.642 0 0 0 5.313 1.479h16.281a2.846 2.846 0 0 0 1.5-.378 1.426 1.426 0 0 0 .626-1.329 1.463 1.463 0 0 0-.626-1.366 2.829 2.829 0 0 0-1.5-.38h-15.523a5.638 5.638 0 0 1-3.434-.834q-1.083-.836-1.081-3.34V42.5m-34.39-4.9v-7.779a3.115 3.115 0 0 0-.378-1.575 1.479 1.479 0 0 0-1.4-.665 1.536 1.536 0 0 0-1.423.645 2.988 2.988 0 0 0-.4 1.594v28.8a2.891 2.891 0 0 0 .4 1.575 1.554 1.554 0 0 0 1.423.626 1.491 1.491 0 0 0 1.4-.645 3.012 3.012 0 0 0 .378-1.556V37.6zM33.112 41a45.01 45.01 0 0 0 .054-2.182 2.962 2.962 0 0 0-.417-1.631 1.628 1.628 0 0 0-1.481-.645 1.66 1.66 0 0 0-1.385.549 2.292 2.292 0 0 0-.436 1.462q0 .951.056 1.9t.058 1.936a14.832 14.832 0 0 1-2.22 8.386 16 16 0 0 1-6.741 5.459 9.632 9.632 0 0 0-1.385.778 1.524 1.524 0 0 0-.778 1.31 1.644 1.644 0 0 0 1.863 1.86 4.067 4.067 0 0 0 1.669-.417 14.213 14.213 0 0 0 1.765-.968q.856-.55 1.423-.93a21.415 21.415 0 0 0 4.877-4.65 14.739 14.739 0 0 0 2.6-6.2M186.346 40.6c.127-.279.328-.789.607-1.539s.588-1.585.93-2.522.67-1.865.985-2.789.582-1.727.8-2.411a6.3 6.3 0 0 0 .321-1.291 1.352 1.352 0 0 0-.872-1.423 5.148 5.148 0 0 0-1.784-.323h-10.815a2.793 2.793 0 0 0-1.423.342 1.363 1.363 0 0 0-.59 1.291 1.363 1.363 0 0 0 .59 1.291 2.794 2.794 0 0 0 1.423.342h9.145a.915.915 0 0 1 .248.058c.113.036.144.106.094.207q-.683 2.164-1.443 4.289t-1.556 4.249a20.974 20.974 0 0 0-4.706.7 14.846 14.846 0 0 0-4.289 1.879 9.824 9.824 0 0 0-3.112 3.206 8.934 8.934 0 0 0-1.176 4.689 7.168 7.168 0 0 0 .549 2.77 5.323 5.323 0 0 0 1.633 2.182 4.458 4.458 0 0 0 5.029.152 11.03 11.03 0 0 0 1.9-1.575 13.654 13.654 0 0 0 1.652-2.2q.856-1.366 1.708-2.941t1.575-3.054q.72-1.481 1.214-2.507m-4.183 1.577q-.568 1.155-1.327 2.541t-1.613 2.637a12.89 12.89 0 0 1-1.708 2.069 2.434 2.434 0 0 1-1.613.816 1.368 1.368 0 0 1-1.4-.8 4.213 4.213 0 0 1-.342-1.669 6.091 6.091 0 0 1 1.31-4.063 8.162 8.162 0 0 1 3.34-2.351 14.1 14.1 0 0 1 4.193-.951q-.268.615-.84 1.771zm22.562.624a6.415 6.415 0 0 0-1.233-.91 13.578 13.578 0 0 0-1.423-.72c-.469-.2-.841-.353-1.12-.455l.494-5.086a1.4 1.4 0 0 0-.436-1.272 1.9 1.9 0 0 0-1.272-.436 2.2 2.2 0 0 0-.8.133 1.138 1.138 0 0 0-.569.551 3.149 3.149 0 0 0-.267.947c-.075.457-.133.957-.169 1.5s-.071 1.056-.1 1.537-.05.836-.075 1.064q-2.432-.761-4.954-1.329a18.05 18.05 0 0 0-1.925-.521l-1.312 3.106c1.081.161 1.243.342 2.307.565a40.62 40.62 0 0 1 5.39 1.517 15.973 15.973 0 0 1-2.524 6.2 15.461 15.461 0 0 1-4.877 4.612q-.343.19-.853.532a6.011 6.011 0 0 0-.932.759 1.268 1.268 0 0 0-.417.91 1.493 1.493 0 0 0 1.669 1.708 3.225 3.225 0 0 0 1.443-.38 11.176 11.176 0 0 0 1.481-.891q.72-.51 1.214-.891a18.266 18.266 0 0 0 4.46-5.067 21.6 21.6 0 0 0 2.409-6.281 8.621 8.621 0 0 1 .987.438c.428.213.859.417 1.291.607a2.734 2.734 0 0 0 .947.284 1.572 1.572 0 0 0 1.158-2.733zm-81.253-18.918a1.679 1.679 0 1 1-1.679 1.679 1.681 1.681 0 0 1 1.679-1.679m0-3.359a5.037 5.037 0 1 0 5.036 5.038 5.037 5.037 0 0 0-5.036-5.038zm-75.167 7.5a3.207 3.207 0 0 0-2.391-.968H18.328a3 3 0 0 0-1.462.342 1.373 1.373 0 0 0-.626 1.327 1.44 1.44 0 0 0 .607 1.329 2.755 2.755 0 0 0 1.481.378h24.25a1.987 1.987 0 0 1 .93.209.834.834 0 0 1 .4.816 3.973 3.973 0 0 1-.814 2.24 12.125 12.125 0 0 1-2.107 2.276 22.957 22.957 0 0 1-2.789 2.03 25.327 25.327 0 0 1-2.737 1.483l-.24 3.494c1.222-.482 2.437-1 3.642-1.581a18.047 18.047 0 0 0 5.388-3.947 25.456 25.456 0 0 0 1.708-2.067 12.248 12.248 0 0 0 1.387-2.372 6.389 6.389 0 0 0 .549-2.582 3.3 3.3 0 0 0-.953-2.41zm35.043 14.9A17.949 17.949 0 0 0 79.346 44q-1.631-1.046-3.567-2.071t-3.8-1.9a132.165 132.165 0 0 0-2.751-1.256v3.571a38.055 38.055 0 0 1 3.586 1.879 48.423 48.423 0 0 1 5.73 4.041 13.677 13.677 0 0 0 1.139.836 2.352 2.352 0 0 0 1.291.455 2.147 2.147 0 0 0 1.481-.474 1.814 1.814 0 0 0 .53-1.423 2.572 2.572 0 0 0-1-1.669zM119.543 35.7a5.15 5.15 0 0 0-.893.152c-.442.1-.943.229-1.5.38s-1.07.292-1.537.417-.778.215-.93.265a53 53 0 0 1-6.832 1.387c-1.266.171-2.532.319-3.8.467v3.344c1.579-.192 3.156-.384 4.746-.567q3.985-.455 7.894-1.291.415-.075 1.214-.265a12.021 12.021 0 0 0 1.613-.513 5.319 5.319 0 0 0 1.385-.778 1.336 1.336 0 0 0 .569-1.062 1.711 1.711 0 0 0-1.929-1.936zm120.3 9.337a6.875 6.875 0 0 0-2.428-2.637 10.329 10.329 0 0 0-3.53-1.366 21.444 21.444 0 0 0-4.232-.4 19.7 19.7 0 0 0-6.508 1.1c-.968.336-1.905.726-2.827 1.145l-.678 4.07v.123a30.054 30.054 0 0 1 3.258-1.752 16.7 16.7 0 0 1 7.021-1.423 12.4 12.4 0 0 1 3.417.455 5.1 5.1 0 0 1 2.56 1.594 4.9 4.9 0 0 1 .968 3.263 5.563 5.563 0 0 1-.91 3.225 7.27 7.27 0 0 1-2.428 2.2 13.441 13.441 0 0 1-3.321 1.348 22.6 22.6 0 0 1-3.586.645q-1.786.17-3.227.171c-.48 0-.962-.008-1.443-.019s-.974-.021-1.479-.021a2.674 2.674 0 0 0-1.423.363 1.408 1.408 0 0 0-.588 1.308 1.547 1.547 0 0 0 .8 1.556 4.083 4.083 0 0 0 1.783.38q2.239 0 4.9-.209a35.525 35.525 0 0 0 5.275-.816 17.65 17.65 0 0 0 4.764-1.821 9.8 9.8 0 0 0 3.454-3.244 9.1 9.1 0 0 0 1.308-5.029 8.875 8.875 0 0 0-.9-4.206z" transform="translate(-14.974 -3.537)" style="mix-blend-mode:color-burn;isolation:isolate;fill:url(#f463rukn2a)"/>
                <g data-name="Group 85">
                    <path data-name="Path 168" d="M16.922 23.739a.544.544 0 0 1-.615-.615.505.505 0 0 1 .257-.432 3.151 3.151 0 0 1 .457-.257 5.262 5.262 0 0 0 2.222-1.8 4.88 4.88 0 0 0 .734-2.768c0-.217-.006-.43-.019-.638s-.019-.419-.019-.626a.751.751 0 0 1 .144-.482.551.551 0 0 1 .457-.182.539.539 0 0 1 .49.213.984.984 0 0 1 .136.538q0 .778-.075 1.529a3.763 3.763 0 0 0 .784-.269 8.409 8.409 0 0 0 .951-.515 7.107 7.107 0 0 0 .92-.67 3.921 3.921 0 0 0 .7-.751 1.3 1.3 0 0 0 .271-.74.275.275 0 0 0-.137-.274.653.653 0 0 0-.307-.069h-8a.9.9 0 0 1-.49-.125.475.475 0 0 1-.2-.438.452.452 0 0 1 .207-.438.988.988 0 0 1 .482-.113h8.655a1.06 1.06 0 0 1 .788.319 1.089 1.089 0 0 1 .313.8 2.1 2.1 0 0 1-.181.853 4.056 4.056 0 0 1-.457.782 8.629 8.629 0 0 1-.565.684 5.975 5.975 0 0 1-1.779 1.3 18.22 18.22 0 0 1-2.053.839 4.839 4.839 0 0 1-.859 2.048 7.039 7.039 0 0 1-1.61 1.535c-.125.083-.28.186-.469.307a5.047 5.047 0 0 1-.582.319 1.337 1.337 0 0 1-.551.136z" transform="translate(-15.581 -12.541)" style="fill:#252525"/>
                    <path data-name="Path 169" d="M24.47 24.353a.509.509 0 0 1-.47-.206.948.948 0 0 1-.133-.521v-9.505a.977.977 0 0 1 .133-.527.5.5 0 0 1 .469-.213.484.484 0 0 1 .463.219 1.025 1.025 0 0 1 .127.521v2.568c.15.058.388.158.713.3s.693.309 1.1.5.826.4 1.252.626.818.453 1.177.682a5.928 5.928 0 0 1 .87.659.85.85 0 0 1 .332.551.6.6 0 0 1-.175.469.705.705 0 0 1-.49.158.764.764 0 0 1-.424-.152 3.965 3.965 0 0 1-.376-.275 15.85 15.85 0 0 0-1.892-1.333 12.554 12.554 0 0 0-2.09-1.008v5.76a.988.988 0 0 1-.127.515.491.491 0 0 1-.459.212z" transform="translate(-7.949 -12.943)" style="fill:#252525"/>
                    <path data-name="Path 170" d="M32.156 24a2.861 2.861 0 0 1-1.754-.488 1.955 1.955 0 0 1-.651-1.667v-7.289a.955.955 0 0 1 .125-.507.482.482 0 0 1 .451-.206.5.5 0 0 1 .457.206.939.939 0 0 1 .131.507v2.831q1.152-.124 2.3-.282a17.236 17.236 0 0 0 2.255-.457c.05-.015.152-.046.305-.086l.509-.138c.182-.05.348-.092.494-.125a1.533 1.533 0 0 1 .3-.05.564.564 0 0 1 .638.638.442.442 0 0 1-.188.352 1.755 1.755 0 0 1-.457.257 4.25 4.25 0 0 1-.532.169c-.175.04-.309.069-.4.086q-1.291.277-2.6.426t-2.618.313v2.993a1.344 1.344 0 0 0 .357 1.1 1.855 1.855 0 0 0 1.133.277h5.123a.931.931 0 0 1 .5.125.484.484 0 0 1 .206.451.474.474 0 0 1-.206.438.949.949 0 0 1-.5.125zm5.912-8.229a1.305 1.305 0 0 1-1.3-1.3 1.222 1.222 0 0 1 .39-.922 1.294 1.294 0 0 1 .926-.369 1.2 1.2 0 0 1 .909.388 1.283 1.283 0 0 1 .369.914 1.282 1.282 0 0 1-1.289 1.291zm-.013-.626a.6.6 0 0 0 .676-.676.67.67 0 1 0-1.341.012.588.588 0 0 0 .665.665z" transform="translate(-2.533 -13.129)" style="fill:#252525"/>
                    <path data-name="Path 171" d="M36.26 17.055a.987.987 0 0 1-.524-.131.51.51 0 0 1-.213-.471.486.486 0 0 1 .219-.463 1.017 1.017 0 0 1 .519-.125H45.6a.977.977 0 0 1 .526.131.508.508 0 0 1 .213.471.486.486 0 0 1-.219.463 1.044 1.044 0 0 1-.521.125z" transform="translate(2.781 -10.655)" style="fill:#252525"/>
                    <path data-name="Path 172" d="M42.419 19.459a.419.419 0 0 1-.474-.474 2.779 2.779 0 0 1 .069-.6 4.77 4.77 0 0 0 .092-.6c.027-.294.05-.586.077-.878s.04-.58.05-.864a4.413 4.413 0 0 0 0-.451.9.9 0 0 1 .069-.43c.054-.121.181-.182.38-.182a.377.377 0 0 1 .346.15.68.68 0 0 1 .094.363v.807c0 .321-.008.655-.019 1s-.036.676-.069.989a4.648 4.648 0 0 1-.138.782.584.584 0 0 1-.156.288.452.452 0 0 1-.321.1zm1.917 5.5c-.342 0-.513-.179-.513-.538V13.7c0-.359.171-.54.513-.54s.5.181.5.54v10.721c.002.359-.165.537-.5.537zm1.74-8.09a.376.376 0 0 1-.275-.113.825.825 0 0 1-.175-.252c-.017-.04-.06-.123-.127-.244s-.136-.254-.211-.4l-.2-.4a.8.8 0 0 1-.088-.209.327.327 0 0 1 .111-.275.464.464 0 0 1 .288-.088c.067 0 .163.065.288.194a3.989 3.989 0 0 1 .382.465 4.227 4.227 0 0 1 .327.519.962.962 0 0 1 .131.352.4.4 0 0 1-.45.45zm.1 7.639a.746.746 0 0 1-.421-.111.438.438 0 0 1-.169-.388.448.448 0 0 1 .169-.4.747.747 0 0 1 .421-.113h3.356v-2.959h-1.951a.721.721 0 0 1-.419-.113.43.43 0 0 1-.171-.388.443.443 0 0 1 .171-.4.721.721 0 0 1 .419-.113h1.953V16.93h-1.89l-.127.54c-.06.252-.133.528-.225.832s-.2.6-.313.884a3.006 3.006 0 0 1-.388.7.586.586 0 0 1-.451.277c-.352 0-.526-.167-.526-.5a.73.73 0 0 1 .044-.238 2.128 2.128 0 0 1 .094-.227 11.947 11.947 0 0 0 .809-2.184 17.166 17.166 0 0 0 .407-2.3.937.937 0 0 1 .142-.432.44.44 0 0 1 .4-.182.623.623 0 0 1 .394.113.451.451 0 0 1 .144.376 3.324 3.324 0 0 1-.069.657c-.046.23-.085.453-.119.67h1.679v-2.192c0-.376.175-.565.526-.565s.526.188.526.565v2.192H52.9a.76.76 0 0 1 .432.113.442.442 0 0 1 .169.4.429.429 0 0 1-.175.39.775.775 0 0 1-.426.111h-2.313v2.593h1.879a.782.782 0 0 1 .438.113.437.437 0 0 1 .177.4.426.426 0 0 1-.177.4.831.831 0 0 1-.438.106h-1.879v2.956h2.568a.736.736 0 0 1 .419.113.443.443 0 0 1 .169.4.433.433 0 0 1-.169.388.736.736 0 0 1-.419.111z" transform="translate(8.695 -13.147)" style="fill:#252525"/>
                    <path data-name="Path 173" d="M51.39 24.87c-.376 0-.563-.2-.563-.588a.434.434 0 0 1 .25-.432 2.184 2.184 0 0 1 .49-.169 15.089 15.089 0 0 0 1.477-.426 8.63 8.63 0 0 0 1.4-.626 6.7 6.7 0 0 1-.507-.519q-.308-.346-.607-.759a7.015 7.015 0 0 1-.507-.8 1.461 1.461 0 0 1-.207-.651.448.448 0 0 1 .158-.39.681.681 0 0 1 .407-.111.544.544 0 0 1 .394.138 1.168 1.168 0 0 1 .244.35 9.346 9.346 0 0 0 .69 1.147 4.686 4.686 0 0 0 .926.97 6.853 6.853 0 0 0 .8-.715 8.53 8.53 0 0 0 .682-.812l.255-.346a5.111 5.111 0 0 0 .332-.507.913.913 0 0 0 .152-.375.159.159 0 0 0-.088-.163.478.478 0 0 0-.188-.038h-6.5a26.156 26.156 0 0 1-.169 2.092 10.317 10.317 0 0 1-.457 2.055c-.035.09-.083.223-.144.394a4.523 4.523 0 0 1-.232.521 2.4 2.4 0 0 1-.3.449.465.465 0 0 1-.352.188.532.532 0 0 1-.463-.188.8.8 0 0 1-.138-.488.644.644 0 0 1 .075-.288c.05-.1.092-.188.125-.263a7.362 7.362 0 0 0 .526-1.452 12.675 12.675 0 0 0 .3-1.635q.1-.847.131-1.665t.031-1.548q0-.363-.012-.72a21.015 21.015 0 0 1-.012-.707 1.081 1.081 0 0 1 .288-.859 1.212 1.212 0 0 1 .862-.282h3.219q0-.187-.012-.438a2.937 2.937 0 0 1 .012-.488.749.749 0 0 1 .158-.4.493.493 0 0 1 .407-.163.475.475 0 0 1 .4.163.784.784 0 0 1 .152.407 3.544 3.544 0 0 1 .012.5 9.113 9.113 0 0 0-.012.424h3.807a2.207 2.207 0 0 1 .507.058.81.81 0 0 1 .407.219.651.651 0 0 1 .163.476 1.1 1.1 0 0 1-.125.394 6.531 6.531 0 0 1-.321.6 8.906 8.906 0 0 1-.413.632 3.638 3.638 0 0 1-.419.5.562.562 0 0 1-.327.194.831.831 0 0 1-.438-.106.425.425 0 0 1-.175-.4.6.6 0 0 1 .111-.313c.075-.117.163-.24.263-.369s.188-.252.263-.363a.556.556 0 0 0 .113-.282.109.109 0 0 0-.063-.113.361.361 0 0 0-.125-.025h-3.229v2.268H58a2.664 2.664 0 0 1 .507.05 1.04 1.04 0 0 1 .457.194.54.54 0 0 1 .188.457 1.614 1.614 0 0 1-.207.676 7.446 7.446 0 0 1-.538.9 16.013 16.013 0 0 1-1.422 1.773 4.976 4.976 0 0 1-.565.538 8.133 8.133 0 0 0 1.6.6q.821.213 1.66.363a2 2 0 0 1 .5.169.455.455 0 0 1 .238.446.571.571 0 0 1-.64.651 4.356 4.356 0 0 1-1.033-.144 10.4 10.4 0 0 1-1.2-.376q-.614-.23-1.164-.494a16.217 16.217 0 0 1-.953-.49 7.836 7.836 0 0 1-.832.465q-.533.262-1.152.507c-.413.163-.8.3-1.172.407a3.328 3.328 0 0 1-.882.151zm-.5-6.85h3.269v-2.268H51.4a.446.446 0 0 0-.4.175.747.747 0 0 0-.119.426z" transform="translate(14.843 -13.147)" style="fill:#252525"/>
                    <path data-name="Path 174" d="M55.856 24.745c-.375 0-.563-.2-.563-.588a.525.525 0 0 1 .069-.244c.046-.088.085-.161.119-.221a4.7 4.7 0 0 0 .532-1.364 9.677 9.677 0 0 0 .219-1.529c.033-.517.05-1.006.05-1.466q0-.85-.006-1.7t-.019-1.7a1.086 1.086 0 0 1 .313-.862 1.3 1.3 0 0 1 .889-.277h2.893V13.56a.321.321 0 0 1 .163-.319.813.813 0 0 1 .363-.083.537.537 0 0 1 .426.127.662.662 0 0 1 .1.413h4a.482.482 0 0 1 .282.075.3.3 0 0 1 .106.263c0 .234-.129.35-.388.35h-4v.4h4.447a1.149 1.149 0 0 1 .764.225.931.931 0 0 1 .263.74v.449a.692.692 0 0 1-.1.382.456.456 0 0 1-.413.156.826.826 0 0 1-.194-.025.428.428 0 0 1-.181-.086.412.412 0 0 1 .061.238.621.621 0 0 1-.131.424.789.789 0 0 1-.382.227 1.828 1.828 0 0 1-.438.056c-.227.013-.476.023-.751.031s-.532.015-.764.019l-.465.006c-.382 0-.768-.006-1.151-.017l-1.152-.033c-.309-.015-.5-.123-.565-.319a1.834 1.834 0 0 1-.088-.657c-.357.008-.724.025-1.095.05s-.741.036-1.108.036c-.175 0-.263-.1-.263-.3a.249.249 0 0 1 .113-.238.621.621 0 0 1 .263-.075l2.09-.075v-.515H57.9a.8.8 0 0 0-.438.113.439.439 0 0 0-.175.4c0 .142 0 .405.012.788s.013.843.013 1.373-.012 1.093-.033 1.69-.06 1.183-.117 1.759a13.146 13.146 0 0 1-.252 1.571 3.869 3.869 0 0 1-.419 1.133.743.743 0 0 1-.635.433zm2.931-4.145a1.081 1.081 0 0 1-.663-.188.733.733 0 0 1-.252-.626v-1.014a.7.7 0 0 1 .252-.607 1.058 1.058 0 0 1 .638-.182H65.6a1.17 1.17 0 0 1 .676.182.711.711 0 0 1 .263.632v1.014a.676.676 0 0 1-.271.607 1.166 1.166 0 0 1-.668.182zm5.173 4.358a.37.37 0 0 1-.424-.413c0-.192.063-.313.194-.363a1.048 1.048 0 0 1 .474-.05 6.8 6.8 0 0 0 .534.025.894.894 0 0 0 .375-.069.291.291 0 0 0 .152-.294v-.213h-6.19v.889c0 .317-.15.476-.451.476s-.449-.159-.449-.476v-2.642a.766.766 0 0 1 .238-.632 1.01 1.01 0 0 1 .663-.2h6.212a1.04 1.04 0 0 1 .67.2.758.758 0 0 1 .246.632v2.167q0 .965-1 .964zm-5.223-5.948h2.956v-.451h-2.7c-.167 0-.252.079-.252.238zm.252 1.014h2.7v-.5h-2.952v.25a.223.223 0 0 0 .252.25zm.086 1.992h6.189v-.177a.234.234 0 0 0-.264-.263h-5.662a.233.233 0 0 0-.263.263zm0 1.014h6.189v-.463h-6.189zm3.521-6h.444c.23 0 .48 0 .751-.006s.517-.01.734-.019a1.964 1.964 0 0 0 .4-.036.308.308 0 0 0 .2-.169 1.3 1.3 0 0 1 .125-.232.323.323 0 0 1 .288-.113.879.879 0 0 1 .207.027.533.533 0 0 1 .194.086.458.458 0 0 1-.088-.294v-.357a.537.537 0 0 0-.081-.3.37.37 0 0 0-.332-.127h-4.333v.476q.913-.037 1.84-.094a31.653 31.653 0 0 1 1.842-.056c.217 0 .325.1.325.3a.234.234 0 0 1-.113.227.632.632 0 0 1-.25.075l-3.644.15v.163a.507.507 0 0 0 .017.119.145.145 0 0 0 .069.094.633.633 0 0 0 .263.056c.142.013.3.021.465.025s.317.006.449.006zm-.063 1.98h3.081v-.21a.21.21 0 0 0-.238-.238h-2.843zm0 1.014h2.843c.159 0 .238-.085.238-.252v-.25h-3.081z" transform="translate(20.986 -13.147)" style="fill:#252525"/>
                    <path data-name="Path 175" d="M62.622 19.309a.759.759 0 0 1-.457-.125.515.515 0 0 1-.165-.437.438.438 0 0 1 .376-.488c.083-.017.169-.033.257-.044l.255-.033a7.473 7.473 0 0 0 1.829-.538 4.007 4.007 0 0 0 1.5-1.128 4.426 4.426 0 0 0 .607-.92 3.416 3.416 0 0 0 .269-.878q.075-.455.127-1.07a.481.481 0 0 1 .549-.49.629.629 0 0 1 .4.113.432.432 0 0 1 .144.363 2.382 2.382 0 0 1-.058.5 6.38 6.38 0 0 0-.081.494 4.509 4.509 0 0 0 1.546 2.086 7.39 7.39 0 0 0 2.338 1.147c.207.058.415.108.618.15s.411.088.62.138a.568.568 0 0 1 .327.169.55.55 0 0 1 .1.357.653.653 0 0 1-.133.432.516.516 0 0 1-.419.156 2.429 2.429 0 0 1-.67-.113c-.255-.075-.5-.159-.745-.255s-.451-.182-.626-.257a8.457 8.457 0 0 1-1.892-1.139 5.647 5.647 0 0 1-1.416-1.679 4.766 4.766 0 0 1-1.433 1.978 6.826 6.826 0 0 1-2.174 1.166c-.225.065-.488.142-.788.225a3.084 3.084 0 0 1-.805.12zm-.061 5.574a.5.5 0 0 1-.561-.576.456.456 0 0 1 .138-.382.725.725 0 0 1 .338-.138c.133-.019.263-.042.388-.067a6.536 6.536 0 0 0 1.836-.609 4.652 4.652 0 0 0 1.446-1.145 4.49 4.49 0 0 0 .876-1.717 4.264 4.264 0 0 0 .133-.732c.019-.238.038-.486.056-.745a.514.514 0 0 1 .563-.551.876.876 0 0 1 .432.1.4.4 0 0 1 .182.388 3.484 3.484 0 0 1-.069.676 15.93 15.93 0 0 0-.119.676 5.284 5.284 0 0 0 1.053 1.61 6 6 0 0 0 1.521 1.158 8.328 8.328 0 0 0 1.784.715 2.223 2.223 0 0 0 .371.075 2.723 2.723 0 0 1 .369.075.592.592 0 0 1 .327.169.581.581 0 0 1 .1.371.653.653 0 0 1-.133.432.516.516 0 0 1-.419.156 3.191 3.191 0 0 1-.958-.156 7.071 7.071 0 0 1-.964-.388q-.47-.233-.87-.457a7.393 7.393 0 0 1-1.441-1.1 6.363 6.363 0 0 1-1.078-1.446l-.025-.038a4.808 4.808 0 0 1-1.385 2 7.116 7.116 0 0 1-2.109 1.235 8.87 8.87 0 0 1-.878.288 3.484 3.484 0 0 1-.904.124zm1.089-3.006c-.376 0-.563-.175-.563-.526a.586.586 0 0 1 .106-.275c.071-.117.156-.246.257-.382s.2-.267.288-.39.158-.209.2-.269q.112-.161.288-.369a.515.515 0 0 1 .4-.207.761.761 0 0 1 .4.1.394.394 0 0 1 .163.365 1.2 1.2 0 0 1-.163.482 4.828 4.828 0 0 1-.407.657 3.515 3.515 0 0 1-.507.576.739.739 0 0 1-.462.239zm.075-5.511c-.376 0-.563-.175-.563-.526a.591.591 0 0 1 .106-.277c.071-.115.158-.244.257-.382s.2-.265.288-.388.157-.209.2-.269q.112-.161.288-.369a.515.515 0 0 1 .4-.207.761.761 0 0 1 .4.1.392.392 0 0 1 .163.365 1.2 1.2 0 0 1-.163.482 5.129 5.129 0 0 1-.405.657 3.7 3.7 0 0 1-.509.576.739.739 0 0 1-.462.239zm7.165 5.386a.694.694 0 0 1-.444-.133.494.494 0 0 1-.169-.419.848.848 0 0 1 .161-.382c.109-.171.227-.342.352-.515s.213-.3.263-.38a3.057 3.057 0 0 1 .28-.365.52.52 0 0 1 .4-.186.87.87 0 0 1 .438.106.416.416 0 0 1 .188.4 1.124 1.124 0 0 1-.163.457 4.763 4.763 0 0 1-.407.632 4.374 4.374 0 0 1-.488.557.686.686 0 0 1-.412.229zm.11-5.51a.752.752 0 0 1-.451-.127.484.484 0 0 1-.175-.424.851.851 0 0 1 .161-.4q.164-.256.352-.519c.125-.177.217-.305.275-.39a2.124 2.124 0 0 1 .277-.344.529.529 0 0 1 .388-.181.87.87 0 0 1 .438.106.412.412 0 0 1 .188.394 1.107 1.107 0 0 1-.163.457 5.185 5.185 0 0 1-.4.634 4.212 4.212 0 0 1-.482.557.686.686 0 0 1-.408.237z" transform="translate(27.158 -13.147)" style="fill:#252525"/>
                    <path data-name="Path 176" d="M69.29 24.421a.493.493 0 0 1-.551-.565.648.648 0 0 1 .1-.35q.251-.452.432-.859a6.413 6.413 0 0 0 .319-.909.846.846 0 0 1 .188-.344.461.461 0 0 1 .352-.133.448.448 0 0 1 .513.5 2.416 2.416 0 0 1-.125.7 6.664 6.664 0 0 1-.3.784c-.117.255-.221.474-.313.657a1.593 1.593 0 0 1-.238.346.484.484 0 0 1-.377.173zm5.148-3.358c-.267 0-.417-.073-.446-.219a2.8 2.8 0 0 1-.042-.532h-3.571a1.2 1.2 0 0 1-.726-.188.829.829 0 0 1-.25-.7v-1a.78.78 0 0 1 .876-.889h3.671v-.755h-3.169a1.258 1.258 0 0 1-.734-.182.815.815 0 0 1-.255-.707v-.939a.786.786 0 0 1 .889-.889h3.269v-.421a.569.569 0 0 1 .1-.344.454.454 0 0 1 .388-.138.478.478 0 0 1 .4.133.54.54 0 0 1 .1.338v.432h3.206a1.2 1.2 0 0 1 .726.188.829.829 0 0 1 .252.7v.939a.781.781 0 0 1-.878.889h-3.305v.751h3.594a1.2 1.2 0 0 1 .726.188.829.829 0 0 1 .252.7v1a.781.781 0 0 1-.878.889h-3.694a2.764 2.764 0 0 1-.044.538c-.029.147-.182.218-.457.218zm-3.732-1.579h3.244v-1.125h-3.244a.3.3 0 0 0-.213.081.28.28 0 0 0-.088.219v.526a.3.3 0 0 0 .3.3zm.363-3.519h2.881v-1.089h-2.881a.255.255 0 0 0-.288.288v.513a.255.255 0 0 0 .288.288zm3.206 8.73c-.1 0-.25 0-.451-.006l-.645-.019a6.165 6.165 0 0 1-.626-.05 1.27 1.27 0 0 1-.419-.113.778.778 0 0 1-.438-.751v-2.1a.836.836 0 0 1 .113-.457.559.559 0 0 1 .826 0 .853.853 0 0 1 .113.457V23.3a.275.275 0 0 0 .169.269 1.2 1.2 0 0 0 .405.108 3.473 3.473 0 0 0 .465.019c.15-.006.263-.008.338-.008h.413q.3 0 .645-.017c.229-.013.44-.031.632-.05a1.129 1.129 0 0 0 .376-.083.456.456 0 0 0 .213-.313c.025-.133.046-.273.069-.419a.816.816 0 0 1 .136-.371.471.471 0 0 1 .407-.15.515.515 0 0 1 .576.59 3.665 3.665 0 0 1-.106.839 1.075 1.075 0 0 1-.482.676 1.535 1.535 0 0 1-.546.175 7.342 7.342 0 0 1-.8.088c-.284.015-.551.027-.8.031s-.441.016-.583.016zm.64-1.967a.555.555 0 0 1-.321-.136 2.419 2.419 0 0 1-.355-.338 2.858 2.858 0 0 1-.3-.4.66.66 0 0 1-.119-.307.412.412 0 0 1 .144-.355.594.594 0 0 1 .709.017 2.775 2.775 0 0 1 .375.307 1.89 1.89 0 0 1 .307.376.673.673 0 0 1 .119.332.451.451 0 0 1-.156.388.689.689 0 0 1-.404.116zm.025-6.763h2.906q.3 0 .3-.288v-.513q0-.288-.3-.288h-2.907zm0 3.519h3.269a.265.265 0 0 0 .3-.3v-.526a.265.265 0 0 0-.3-.3h-3.27zm4.7 4.66a.767.767 0 0 1-.252-.05.378.378 0 0 1-.2-.15l-.369-.62a21.833 21.833 0 0 0-.371-.607 2.959 2.959 0 0 0-.2-.277 3.933 3.933 0 0 1-.257-.369.658.658 0 0 1-.117-.319q0-.49.513-.49a.627.627 0 0 1 .188.038.343.343 0 0 1 .161.1c.01.017.065.09.171.219s.229.29.375.482.29.388.432.59.261.38.357.538a.83.83 0 0 1 .144.338.509.509 0 0 1-.579.577z" transform="translate(33.367 -13.147)" style="fill:#252525"/>
                    <path data-name="Path 177" d="M79.007 24.551a1.679 1.679 0 0 1-.934-.227.97.97 0 0 1-.344-.876v-2.756c-.075.035-.2.1-.376.194s-.367.2-.576.3-.4.188-.576.263a1.124 1.124 0 0 1-.375.111c-.334 0-.5-.179-.5-.538a.437.437 0 0 1 .136-.338 1.1 1.1 0 0 1 .315-.2 21.889 21.889 0 0 0 2.4-1.135q1.152-.631 2.267-1.37h-4.5a.835.835 0 0 1-.446-.113.434.434 0 0 1-.181-.4.41.41 0 0 1 .188-.394.871.871 0 0 1 .438-.108H79.8v-1.481h-2.71a.831.831 0 0 1-.438-.108.421.421 0 0 1-.175-.394.439.439 0 0 1 .175-.4.8.8 0 0 1 .438-.111h2.71c0-.167-.008-.353-.019-.559a1.025 1.025 0 0 1 .094-.532.48.48 0 0 1 .476-.225c.25 0 .411.075.482.225a1.067 1.067 0 0 1 .086.532q-.017.308-.017.559h2.167a.831.831 0 0 1 .438.106.421.421 0 0 1 .175.394.437.437 0 0 1-.175.4.8.8 0 0 1-.438.113H80.9v1.477h.939q.8-.625 1.533-1.308t1.421-1.435a2.322 2.322 0 0 1 .263-.244.523.523 0 0 1 .327-.119.657.657 0 0 1 .407.119.465.465 0 0 1 .156.394.828.828 0 0 1-.225.446 6.327 6.327 0 0 1-.57.613q-.343.334-.713.645t-.67.551l-.426.338h3.168a.828.828 0 0 1 .444.113.435.435 0 0 1 .182.4.413.413 0 0 1-.188.394.87.87 0 0 1-.438.108h-4.485L80.4 19.1h4.057a1.745 1.745 0 0 1 .941.219.987.987 0 0 1 .338.884v3.081a1.651 1.651 0 0 1-.227.934 1.007 1.007 0 0 1-.889.332zm-.2-3.219h5.812v-.814a.446.446 0 0 0-.138-.35.492.492 0 0 0-.35-.127h-4.986a.351.351 0 0 0-.238.088.3.3 0 0 0-.1.238zM79.3 23.6h4.83a.482.482 0 0 0 .357-.131.489.489 0 0 0 .131-.357v-.876h-5.812v.876a.454.454 0 0 0 .49.488z" transform="translate(39.431 -13.153)" style="fill:#252525"/>
                    <path data-name="Path 178" d="M88.442 24.241c-.394 0-.83-.015-1.31-.05a10.046 10.046 0 0 1-1.441-.206 5.165 5.165 0 0 1-1.322-.476 2.723 2.723 0 0 1-.97-.851 2.289 2.289 0 0 1-.369-1.335A2.24 2.24 0 0 1 83.405 20a2.659 2.659 0 0 1 .978-.839 4.839 4.839 0 0 1 1.3-.438 7.266 7.266 0 0 1 1.352-.131 7.452 7.452 0 0 1 1.341.119 9.172 9.172 0 0 1 1.3.33q-.389-.637-.782-1.289a21.893 21.893 0 0 1-.745-1.329h-4.968a.89.89 0 0 1-.488-.125.472.472 0 0 1-.2-.438.452.452 0 0 1 .207-.438.988.988 0 0 1 .482-.113H87.6c-.035-.075-.086-.182-.158-.325s-.146-.3-.225-.457-.146-.315-.2-.459a1 1 0 0 1-.081-.325.433.433 0 0 1 .163-.394.737.737 0 0 1 .413-.108.593.593 0 0 1 .5.238 2.071 2.071 0 0 1 .28.488l.3.676c.1.225.2.448.305.665h3.133a.92.92 0 0 1 .482.119.482.482 0 0 1 .194.446.47.47 0 0 1-.194.432.92.92 0 0 1-.482.117h-2.574a1.341 1.341 0 0 0 .156.352c.1.175.215.38.357.615s.288.465.438.7.29.436.421.618.223.313.282.388c.05.06.121.142.211.252a2.567 2.567 0 0 1 .246.338.626.626 0 0 1 .106.3.465.465 0 0 1-.526.526 1.218 1.218 0 0 1-.476-.106 36.01 36.01 0 0 0-.463-.194 5.793 5.793 0 0 0-1.629-.471 12.474 12.474 0 0 0-1.69-.119 5.77 5.77 0 0 0-.859.069 3.234 3.234 0 0 0-.864.257 1.8 1.8 0 0 0-.663.507 1.29 1.29 0 0 0-.257.834 1.233 1.233 0 0 0 .313.876 2.2 2.2 0 0 0 .814.538 4.78 4.78 0 0 0 1.072.288 10.339 10.339 0 0 0 1.095.113c.352.017.647.025.889.025.284 0 .563-.01.839-.031s.555-.048.839-.081l.181-.027a1.526 1.526 0 0 1 .182-.012c.376 0 .563.2.563.588a.555.555 0 0 1-.35.54 1.627 1.627 0 0 1-.421.081c-.2.021-.432.036-.682.044s-.482.012-.7.012z" transform="translate(46.03 -13.069)" style="fill:#252525"/>
                    <path data-name="Path 179" d="M96.691 24.119a2.4 2.4 0 0 1-1.577-.476 1.914 1.914 0 0 1-.6-1.516c-.01-.352-.015-.7-.019-1.053s-.015-.7-.031-1.053a1.448 1.448 0 0 0-.127-.544.468.468 0 0 0-.476-.246 1.932 1.932 0 0 0-1 .282 4.062 4.062 0 0 0-.87.7 9.1 9.1 0 0 0-.7.814 5.448 5.448 0 0 0-.676 1.222l-.526 1.3a2.246 2.246 0 0 1-.213.375.434.434 0 0 1-.376.177.554.554 0 0 1-.626-.626 1.57 1.57 0 0 1 .108-.432c.071-.206.148-.413.23-.62s.142-.359.177-.451l1.076-2.768q.537-1.379 1.152-2.743c.035-.067.094-.2.182-.4s.192-.421.313-.676.242-.507.363-.757.232-.465.332-.645a1.35 1.35 0 0 1 .213-.319.724.724 0 0 1 .2-.15.54.54 0 0 1 .25-.052.683.683 0 0 1 .421.119.484.484 0 0 1 .156.407.965.965 0 0 1-.086.327 5.038 5.038 0 0 1-.363.713q-.628 1.141-1.152 2.338t-1.028 2.4q.326-.337.764-.726a4.951 4.951 0 0 1 .939-.657 2.083 2.083 0 0 1 1-.269 1.454 1.454 0 0 1 .947.263 1.326 1.326 0 0 1 .438.7 3.806 3.806 0 0 1 .125.951c0 .344 0 .688-.006 1.033a6.311 6.311 0 0 0 .044.958 1.287 1.287 0 0 0 .282.7.885.885 0 0 0 .713.263 1.5 1.5 0 0 0 1.022-.344 2.572 2.572 0 0 0 .638-.878 5.29 5.29 0 0 0 .369-1.108q.127-.576.2-1.039a2.083 2.083 0 0 1 .163-.507.434.434 0 0 1 .438-.244.539.539 0 0 1 .451.175.729.729 0 0 1 .136.463 4.3 4.3 0 0 1-.131 1q-.133.55-.269.989a5.339 5.339 0 0 1-.62 1.316 3.1 3.1 0 0 1-.978.958 2.616 2.616 0 0 1-1.392.356z" transform="translate(51.908 -12.871)" style="fill:#252525"/>
                    <path data-name="Path 180" d="M101.2 24.081q-.576 0-1.252-.058a8.678 8.678 0 0 1-1.333-.213 4.416 4.416 0 0 1-1.2-.469 2.462 2.462 0 0 1-.864-.834 2.37 2.37 0 0 1-.325-1.283 2.5 2.5 0 0 1 .25-1.089 4.312 4.312 0 0 1 .657-.991 7.7 7.7 0 0 1 .872-.845c.307-.254.605-.482.887-.682a35.54 35.54 0 0 0-1.84-3.081c-.05-.077-.1-.159-.156-.252a.518.518 0 0 1-.083-.275.509.509 0 0 1 .169-.432.7.7 0 0 1 .446-.133.508.508 0 0 1 .244.058 1.476 1.476 0 0 1 .206.131 1.716 1.716 0 0 1 .346.413c.136.209.288.455.449.74s.327.57.49.859l.444.789c.133.238.238.415.313.532a48.09 48.09 0 0 1 1.654-.845c.384-.186.764-.369 1.139-.54s.707-.313.991-.426a2.026 2.026 0 0 1 .574-.169.56.56 0 0 1 .628.64.58.58 0 0 1-.163.4 1.225 1.225 0 0 1-.313.169 17.217 17.217 0 0 1-.864.331c-.267.1-.6.238-1.008.415s-.837.378-1.3.613-.912.494-1.36.778a10.7 10.7 0 0 0-1.22.9 4.816 4.816 0 0 0-.884.958 1.745 1.745 0 0 0-.332.989 1.189 1.189 0 0 0 .277.807 1.915 1.915 0 0 0 .707.507 3.892 3.892 0 0 0 .939.271 9.587 9.587 0 0 0 .983.106c.317.017.588.025.814.025.618 0 1.239-.025 1.865-.075.2-.017.4-.038.609-.063a5.091 5.091 0 0 1 .618-.036q.6 0 .6.576a.5.5 0 0 1-.238.482 1.9 1.9 0 0 1-.524.194 6.325 6.325 0 0 1-.909.1c-.355.017-.713.023-1.07.019s-.664-.011-.933-.011z" transform="translate(58.682 -12.883)" style="fill:#252525"/>
                    <path data-name="Path 181" d="M108.731 24.154c-.309 0-.668 0-1.083-.013s-.845-.036-1.3-.086a10.008 10.008 0 0 1-1.322-.238 4.59 4.59 0 0 1-1.164-.463 2.4 2.4 0 0 1-.826-.772 2.061 2.061 0 0 1-.307-1.158 3.634 3.634 0 0 1 .061-.6 3.883 3.883 0 0 1 .2-.7 1.671 1.671 0 0 1 .355-.576.744.744 0 0 1 .551-.23.671.671 0 0 1 .421.119.465.465 0 0 1 .156.394.671.671 0 0 1-.131.332 4.457 4.457 0 0 0-.263.476 1.355 1.355 0 0 0-.133.607 1.211 1.211 0 0 0 .263.826 1.663 1.663 0 0 0 .67.457 5.157 5.157 0 0 0 .845.246 7.481 7.481 0 0 0 1.177.156q.6.032 1.177.031a4.246 4.246 0 0 0 .559-.031c.154-.021.336-.038.544-.056l2.217-.163a.551.551 0 0 1 .457.138.591.591 0 0 1 .169.451.519.519 0 0 1-.219.469 1.511 1.511 0 0 1-.494.207 6.609 6.609 0 0 1-1.285.156q-.682.022-1.295.021zm1.516-8.017a1.468 1.468 0 0 1-.255-.023 2.539 2.539 0 0 1-.257-.063 13.24 13.24 0 0 0-3.494-.463 7.941 7.941 0 0 0-1.083.075q-.545.075-1.083.136a.4.4 0 0 1-.382-.142.626.626 0 0 1-.133-.4.548.548 0 0 1 .188-.451 1.277 1.277 0 0 1 .451-.225 4.014 4.014 0 0 1 .776-.125c.317-.025.638-.04.958-.044s.586-.006.8-.006q.9 0 1.823.086a8.677 8.677 0 0 1 1.784.363.7.7 0 0 0 .54.74.6.6 0 0 1-.634.542zm.853-.837a.394.394 0 0 1-.438-.451v-1.14c0-.309.146-.465.438-.465s.426.156.426.465v1.139c-.001.3-.143.452-.426.452zm1.416 0a.393.393 0 0 1-.438-.451v-1.14c0-.309.144-.465.438-.465s.438.156.438.465v1.139a.394.394 0 0 1-.439.452z" transform="translate(64.668 -13.069)" style="fill:#252525"/>
                    <path data-name="Path 182" d="M113.31 24.972a.5.5 0 0 1-.565-.576.426.426 0 0 1 .227-.432 1.153 1.153 0 0 1 .5-.108 2.343 2.343 0 0 0 .964-.15.759.759 0 0 0 .415-.5 3.717 3.717 0 0 0 .1-.964c0-.15-.008-.3-.019-.463s-.027-.313-.044-.463a7.873 7.873 0 0 1-1.5 1.22 17.19 17.19 0 0 1-1.685.958 22.44 22.44 0 0 1-1.191.532 6.981 6.981 0 0 1-.682.244 1.99 1.99 0 0 1-.557.1.483.483 0 0 1-.54-.551.432.432 0 0 1 .252-.415 2.259 2.259 0 0 1 .463-.175 15.1 15.1 0 0 0 1.942-.651 10.478 10.478 0 0 0 1.654-.876 14.181 14.181 0 0 0 1.615-1.241l.036-.025c-.05-.142-.1-.279-.156-.413a2.927 2.927 0 0 0-.194-.388 8.113 8.113 0 0 1-.709.526q-.444.3-.976.613t-1.083.576q-.553.262-1.028.432a2.462 2.462 0 0 1-.8.169.486.486 0 0 1-.338-.839.57.57 0 0 1 .211-.113 5.862 5.862 0 0 1 .539-.15 11.7 11.7 0 0 0 1.953-.757 8.984 8.984 0 0 0 1.754-1.133l-.576-.64a21.368 21.368 0 0 1-1.472.746c-.313.146-.626.284-.939.413s-.6.234-.859.313a2.207 2.207 0 0 1-.626.119.444.444 0 0 1-.357-.138.555.555 0 0 1-.119-.375.387.387 0 0 1 .133-.313.911.911 0 0 1 .319-.175c.125-.042.234-.077.327-.1a13.655 13.655 0 0 0 1.934-.638 12.262 12.262 0 0 0 1.809-.939h-2.5a.7.7 0 0 1-.388-.1.517.517 0 0 1 0-.728.7.7 0 0 1 .388-.1h7.3a.7.7 0 0 1 .388.1.517.517 0 0 1 0 .728.7.7 0 0 1-.388.1h-3.358c-.133.117-.275.229-.424.338s-.305.213-.465.313a4.3 4.3 0 0 1 .864.857 5.117 5.117 0 0 1 .615 1.047l.175-.1c.442-.242.862-.5 1.258-.77s.791-.563 1.185-.87a1.329 1.329 0 0 1 .23-.163.538.538 0 0 1 .269-.075.75.75 0 0 1 .446.119.475.475 0 0 1 .169.419c0 .085-.088.2-.263.357a6.191 6.191 0 0 1-.657.494c-.263.177-.532.344-.8.5s-.511.29-.72.4a2.021 2.021 0 0 1-.4.169 7.885 7.885 0 0 0 1.546 1.635 8.58 8.58 0 0 0 1.948 1.12 2.263 2.263 0 0 1 .426.238.49.49 0 0 1 .213.426.7.7 0 0 1-.133.446.52.52 0 0 1-.432.169 1.486 1.486 0 0 1-.657-.188 5.8 5.8 0 0 1-.715-.432l-.57-.407a10.279 10.279 0 0 1-1.214-1.1 6.907 6.907 0 0 1-.964-1.316 7.738 7.738 0 0 1 .15 1.516 3.844 3.844 0 0 1-.257 1.548 1.533 1.533 0 0 1-.839.813 4.086 4.086 0 0 1-1.558.237zm-3.82-7.741a.466.466 0 0 1-.432-.194.874.874 0 0 1-.119-.471v-.939a1.14 1.14 0 0 1 1.289-1.291h3.7c0-.175 0-.353-.006-.538a.789.789 0 0 1 .111-.457.542.542 0 0 1 .484-.182.553.553 0 0 1 .494.182.764.764 0 0 1 .113.451c0 .179-.008.361-.008.544h3.784a1.5 1.5 0 0 1 1.014.307 1.26 1.26 0 0 1 .352 1v.926a.892.892 0 0 1-.119.471.47.47 0 0 1-.432.194c-.242 0-.4-.065-.471-.194a.916.916 0 0 1-.094-.482l.025-.584a.971.971 0 0 0-.086-.488.448.448 0 0 0-.438-.194h-8.1a.45.45 0 0 0-.44.194.936.936 0 0 0-.086.482c.008.192.015.386.025.582a.937.937 0 0 1-.094.49.478.478 0 0 1-.466.191z" transform="translate(70.197 -13.147)" style="fill:#252525"/>
                    <path data-name="Path 183" d="M117.85 24.82c-.384 0-.574-.179-.574-.538s.169-.538.513-.538a1.944 1.944 0 0 0 .563-.063c.134-.042.23-.206.288-.488a10.177 10.177 0 0 0 .163-1.3c.033-.494.06-.983.081-1.473s.04-.909.058-1.258a.308.308 0 0 0-.094-.269.408.408 0 0 0-.282-.094h-.826q-.063 1.052-.207 2.142a9.962 9.962 0 0 1-.507 2.092c-.033.1-.083.234-.15.4a4.352 4.352 0 0 1-.244.507 1.976 1.976 0 0 1-.321.432.532.532 0 0 1-.375.175.539.539 0 0 1-.5-.74 1.1 1.1 0 0 1 .086-.163 8.17 8.17 0 0 0 .659-1.333 7.414 7.414 0 0 0 .382-1.435 18.6 18.6 0 0 0 .213-2.023q.049-1.02.05-2.023v-.638a6.27 6.27 0 0 0-.407.017 2.458 2.458 0 0 1-.476-.006.807.807 0 0 1-.388-.138.536.536 0 0 1 .012-.77.777.777 0 0 1 .421-.106h1.352v-1.465c0-.376.181-.565.538-.565s.526.188.526.565v1.466h1.252a.681.681 0 0 1 .407.111.559.559 0 0 1 0 .778.681.681 0 0 1-.407.113h-1.865l-.013 1.6c.184 0 .4-.006.651-.019a3.471 3.471 0 0 1 .726.038 1.084 1.084 0 0 1 .576.263.767.767 0 0 1 .2.645l-.138 2.931c-.008.133-.023.328-.044.588s-.052.534-.094.826a6.437 6.437 0 0 1-.161.8 1.175 1.175 0 0 1-.252.513 1.314 1.314 0 0 1-.645.352 3.352 3.352 0 0 1-.747.091zm2.518-7.426a.438.438 0 0 1-.5-.49.5.5 0 0 1 .094-.238q.1-.15.2-.294c.069-.1.123-.165.156-.207a6.888 6.888 0 0 0 .751-1.233 14.155 14.155 0 0 0 .551-1.322.883.883 0 0 1 .182-.319.437.437 0 0 1 .344-.133.579.579 0 0 1 .376.113.446.446 0 0 1 .136.363.93.93 0 0 1-.106.388c-.071.152-.146.3-.225.457a1.727 1.727 0 0 0-.158.4h4.383a.732.732 0 0 1 .421.113.446.446 0 0 1 .169.4.433.433 0 0 1-.169.388.747.747 0 0 1-.421.113h-4.91c-.04.067-.111.182-.213.344s-.215.334-.344.515a3.568 3.568 0 0 1-.388.457.537.537 0 0 1-.329.185zm.125 7.514a.479.479 0 0 1-.388-.15.612.612 0 0 1-.125-.4.41.41 0 0 1 .213-.376 3.1 3.1 0 0 1 .4-.2 4.011 4.011 0 0 0 1.542-1.064 3.57 3.57 0 0 0 .788-1.69h-2.153a.776.776 0 0 1-.407-.1.5.5 0 0 1 0-.751.776.776 0 0 1 .407-.1h2.267a14.555 14.555 0 0 0 .05-1.266v-.313h-1.139c-.05.067-.136.181-.257.338a4.329 4.329 0 0 1-.388.446.563.563 0 0 1-.357.206.414.414 0 0 1-.463-.474.466.466 0 0 1 .1-.277 1.748 1.748 0 0 1 .188-.225 8.063 8.063 0 0 0 .607-.814c.179-.277.35-.569.507-.876a2.622 2.622 0 0 1 .213-.346.406.406 0 0 1 .338-.194.666.666 0 0 1 .357.088.363.363 0 0 1 .144.338 1 1 0 0 1-.144.432l-.219.407h3.356a.69.69 0 0 1 .4.106.517.517 0 0 1 0 .74.69.69 0 0 1-.4.106h-1.865a4.4 4.4 0 0 1-.025.789c-.035.275-.06.54-.075.789h2.591a.708.708 0 0 1 .407.106.413.413 0 0 1 .158.371.408.408 0 0 1-.163.363.687.687 0 0 1-.4.113h-2.516a5.6 5.6 0 0 0 1.008 1.571 4.846 4.846 0 0 0 1.508 1.083 4.084 4.084 0 0 1 .407.238.446.446 0 0 1 .232.388.681.681 0 0 1-.113.407.446.446 0 0 1-.388.156 1.5 1.5 0 0 1-.832-.263 6.965 6.965 0 0 1-.709-.513 4.611 4.611 0 0 1-.909-1.02 9.819 9.819 0 0 1-.67-1.2 5.981 5.981 0 0 1-.738 1.421 4.028 4.028 0 0 1-1.166 1.1c-.142.083-.33.188-.563.319a1.319 1.319 0 0 1-.616.192z" transform="translate(76.328 -13.147)" style="fill:#252525"/>
                    <path data-name="Path 184" d="M122.95 24.958a.461.461 0 0 1-.432-.2.909.909 0 0 1-.119-.476v-7.954a1.256 1.256 0 0 1 1.427-1.416h1.917a2.61 2.61 0 0 0 .163-.33q.1-.233.213-.49c.075-.171.144-.327.211-.469a1.119 1.119 0 0 1 .163-.277.485.485 0 0 1 .238-.15 1.1 1.1 0 0 1 .288-.038 1.152 1.152 0 0 1 .463.094.386.386 0 0 1 .213.4.951.951 0 0 1-.144.388c-.1.175-.2.348-.307.519s-.186.292-.238.357h4.5a1.575 1.575 0 0 1 1.141.357 1.535 1.535 0 0 1 .363 1.133v7.278a1.063 1.063 0 0 1-1.2 1.2h-1.177a.537.537 0 0 1-.615-.6.522.522 0 0 1 .182-.476.853.853 0 0 1 .457-.113h.538a1.285 1.285 0 0 0 .5-.086c.138-.058.207-.206.207-.438v-6.48a.637.637 0 0 0-.715-.726h-6.926a.822.822 0 0 0-.546.163.667.667 0 0 0-.194.538v7.616a.9.9 0 0 1-.119.482.478.478 0 0 1-.452.194zm2.968-2.655a.881.881 0 0 1-.989-1v-2.62a.879.879 0 0 1 .989-1h3.469a.88.88 0 0 1 .991 1V21.3a.881.881 0 0 1-.991 1zm.526-.966h2.416a.442.442 0 0 0 .5-.5v-1.691a.443.443 0 0 0-.5-.5h-2.416a.443.443 0 0 0-.5.5v1.692a.442.442 0 0 0 .5.5z" transform="translate(82.777 -13.147)" style="fill:#252525"/>
                    <path data-name="Path 185" d="M130.35 23.493a.53.53 0 0 1-.457-.28 2.448 2.448 0 0 1-.294-.745 8.5 8.5 0 0 1-.177-1c-.04-.353-.071-.7-.086-1.045s-.025-.643-.025-.9v-.538c0-.467 0-.958.012-1.471s.038-1.026.088-1.535a10.434 10.434 0 0 1 .238-1.441 1.6 1.6 0 0 1 .219-.532.543.543 0 0 1 .5-.244.448.448 0 0 1 .513.5.955.955 0 0 1-.013.15 1.666 1.666 0 0 1-.025.15q-.161 1.1-.255 2.086t-.094 2.1c0 .609.023 1.22.069 1.829a12.338 12.338 0 0 0 .269 1.8c.015.092.035.186.056.282a1.363 1.363 0 0 1 .031.294c-.006.361-.192.54-.569.54zm3.131 1a.526.526 0 0 1-.6-.588.486.486 0 0 1 .163-.376.9.9 0 0 1 .3-.125l.507-.152c.173-.05.282-.083.332-.1a3.82 3.82 0 0 0 1.548-.82 2.66 2.66 0 0 0 .807-1.535 8.633 8.633 0 0 0 .158-1.441c.012-.492.019-.976.019-1.452 0-.142 0-.284-.008-.426s-.006-.279-.006-.413h-4.07a.874.874 0 0 1-.471-.119.578.578 0 0 1 0-.864.892.892 0 0 1 .471-.119h4.059c.008-.332 0-.665-.013-.995s-.025-.661-.025-.995a.748.748 0 0 1 .138-.476.536.536 0 0 1 .449-.177.432.432 0 0 1 .4.207 1.248 1.248 0 0 1 .161.473 3.376 3.376 0 0 1 .038.465c0 .25 0 .5-.008.751s0 .5.019.751h1.189a.85.85 0 0 1 .471.119.6.6 0 0 1 0 .864.835.835 0 0 1-.471.119h-1.189q.012.565.019 1.227c0 .444-.008.9-.031 1.366a11.139 11.139 0 0 1-.158 1.352 4.725 4.725 0 0 1-.369 1.177 2.822 2.822 0 0 1-.978 1.166 6.734 6.734 0 0 1-1.352.726c-.2.075-.448.163-.74.263a2.416 2.416 0 0 1-.759.154z" transform="translate(89.142 -12.997)" style="fill:#252525"/>
                    <path data-name="Path 186" d="M141.506 23.488a.544.544 0 0 1-.615-.615.434.434 0 0 1 .252-.438 2.314 2.314 0 0 1 .5-.163c.2-.042.4-.085.594-.131a4.36 4.36 0 0 0 .584-.182 4.064 4.064 0 0 0 1.815-1.371 3.84 3.84 0 0 0 .269-3.857 3.2 3.2 0 0 0-1.1-1.191 3.863 3.863 0 0 0-1.646-.57.076.076 0 0 1-.05-.012h-.1a.078.078 0 0 0-.05-.013q-.164 1.1-.4 2.205a11.9 11.9 0 0 1-.657 2.13q-.187.461-.471 1a7 7 0 0 1-.657 1.028 3.485 3.485 0 0 1-.851.8 1.9 1.9 0 0 1-1.066.313 1.617 1.617 0 0 1-1.008-.319 2.4 2.4 0 0 1-.676-.814 4.139 4.139 0 0 1-.375-1.053 4.864 4.864 0 0 1-.119-1.033 5.127 5.127 0 0 1 1.7-3.9 5.683 5.683 0 0 1 1.829-1.108 6.191 6.191 0 0 1 2.2-.388 5.891 5.891 0 0 1 2.585.551 4.365 4.365 0 0 1 1.823 1.6 4.619 4.619 0 0 1 .676 2.555 4.416 4.416 0 0 1-2.63 4.272q-.5.236-1.141.469a3.573 3.573 0 0 1-1.215.235zm-3.606-2.319a.883.883 0 0 0 .532-.188 2.513 2.513 0 0 0 .482-.469 4.505 4.505 0 0 0 .394-.576q.17-.294.282-.5a9.335 9.335 0 0 0 .82-2.192 20.4 20.4 0 0 0 .432-2.3 4.864 4.864 0 0 0-2.073.69 4.151 4.151 0 0 0-1.435 1.485 4.211 4.211 0 0 0-.524 2.122 3.65 3.65 0 0 0 .05.565 2.809 2.809 0 0 0 .175.638 1.464 1.464 0 0 0 .338.521.731.731 0 0 0 .527.204z" transform="translate(95.008 -12.553)" style="fill:#252525"/>
                    <path data-name="Path 187" d="M142.543 23.644a.473.473 0 0 1-.319-.1.368.368 0 0 1-.119-.3.706.706 0 0 1 .036-.225q.037-.112.075-.213a4.611 4.611 0 0 0 .277-1.028c.05-.342.083-.693.1-1.051a.966.966 0 0 1 .094-.382.328.328 0 0 1 .332-.169.353.353 0 0 1 .4.4c0 .1-.008.271-.025.507s-.046.5-.086.789a8.222 8.222 0 0 1-.169.839 2.981 2.981 0 0 1-.252.67c-.096.175-.212.263-.344.263zm1.929 1.3a.406.406 0 0 1-.363-.15.685.685 0 0 1-.1-.388v-4.92l-1.4.138a.437.437 0 0 1-.363-.127.5.5 0 0 1-.125-.35.354.354 0 0 1 .182-.352 1.049 1.049 0 0 1 .419-.094c.159 0 .3-.006.413-.006.167-.217.327-.44.476-.67s.3-.461.438-.7q-.349-.326-.713-.613t-.74-.565a2.6 2.6 0 0 1-.227-.2.36.36 0 0 1-.111-.263.4.4 0 0 1 .451-.451.461.461 0 0 1 .23.083 1.688 1.688 0 0 1 .207.144A14.85 14.85 0 0 0 144 13.7a1.465 1.465 0 0 1 .207-.357.48.48 0 0 1 .845.307 1.2 1.2 0 0 1-.163.471c-.108.213-.238.442-.388.688s-.294.473-.432.678-.236.352-.294.444l.751.64.776-1.391a1.231 1.231 0 0 1 .207-.263.43.43 0 0 1 .307-.113c.317 0 .474.15.474.451a1.209 1.209 0 0 1-.186.488c-.125.227-.284.48-.476.764s-.392.569-.6.851-.4.544-.57.778-.3.409-.382.526l1.59-.088a4.826 4.826 0 0 0-.136-.352.894.894 0 0 1-.088-.363c0-.225.117-.338.352-.338.083 0 .177.083.28.244a4.183 4.183 0 0 1 .307.584 5.549 5.549 0 0 1 .244.643 1.751 1.751 0 0 1 .094.421.376.376 0 0 1-.426.424.319.319 0 0 1-.3-.206 1.9 1.9 0 0 1-.138-.357l-.914.113v5.023a.685.685 0 0 1-.1.388.406.406 0 0 1-.37.149zm1.679-1.665a.37.37 0 0 1-.269-.1.449.449 0 0 1-.133-.263l-.363-2.4a.253.253 0 0 1 .106-.271.534.534 0 0 1 .282-.081.306.306 0 0 1 .263.119.611.611 0 0 1 .113.269c.05.259.1.519.156.776s.108.519.157.778c.015.108.038.236.069.382a2.042 2.042 0 0 1 .042.394c.001.265-.14.399-.424.399zm.9-5.3c-.317 0-.476-.167-.476-.5a.5.5 0 0 1 .088-.232 3.357 3.357 0 0 1 .194-.282c.071-.09.123-.158.158-.2a4.762 4.762 0 0 0 .632-1.014c.154-.342.3-.711.432-1.1a1.017 1.017 0 0 1 .182-.332.42.42 0 0 1 .344-.144.666.666 0 0 1 .357.088.363.363 0 0 1 .144.338 1.871 1.871 0 0 1-.15.582 11.944 11.944 0 0 1-.903 1.792 4.814 4.814 0 0 1-.538.726.709.709 0 0 1-.464.281zm.1 6.139a.415.415 0 0 1-.474-.463 1.336 1.336 0 0 1 .036-.182c.025-.1.054-.227.088-.371s.063-.271.094-.388l.056-.225a3.448 3.448 0 0 0 .05-.363c.017-.167.042-.34.075-.521a1.326 1.326 0 0 1 .169-.457.367.367 0 0 1 .321-.188.508.508 0 0 1 .319.094.371.371 0 0 1 .119.307 3.647 3.647 0 0 1-.069.7c-.046.238-.086.469-.119.7a4.494 4.494 0 0 1-.056.338 3.782 3.782 0 0 1-.125.463 1.628 1.628 0 0 1-.2.4.341.341 0 0 1-.284.159zm5.524-4.059a.465.465 0 0 1-.369-.244 4.555 4.555 0 0 1-.257-.4H152c-.292.025-.584.06-.878.1s-.584.079-.876.111c-.342.035-.684.065-1.028.094a29.21 29.21 0 0 0-1.326.144 1.753 1.753 0 0 1-.3.025.438.438 0 0 1-.49-.5.42.42 0 0 1 .152-.363.628.628 0 0 1 .388-.111c.117 0 .232 0 .35.012a1.66 1.66 0 0 0 .34-.012c.175-.369.334-.738.48-1.11a11.721 11.721 0 0 0 .382-1.133 1.652 1.652 0 0 1 .207-.463.468.468 0 0 1 .419-.225.719.719 0 0 1 .382.094.364.364 0 0 1 .158.344 1.582 1.582 0 0 1-.133.526 12.87 12.87 0 0 1-.67 1.42c-.117.212-.207.378-.275.494l.757-.061c.315-.025.624-.046.934-.063s.547-.021.715-.012c-.042-.06-.121-.161-.238-.307s-.225-.3-.327-.451a.761.761 0 0 1-.15-.332c0-.257.142-.388.426-.388a.645.645 0 0 1 .363.194 4.1 4.1 0 0 1 .471.5c.161.2.317.409.463.626a5.2 5.2 0 0 1 .357.607 1.123 1.123 0 0 1 .136.421.43.43 0 0 1-.136.35.579.579 0 0 1-.378.116zm-2.693 4.56a3.867 3.867 0 0 1-.745-.063.762.762 0 0 1-.488-.294 1.257 1.257 0 0 1-.169-.734v-2.58a.463.463 0 1 1 .926 0v2.4a.3.3 0 0 0 .257.332 2.219 2.219 0 0 0 .457.056 4.106 4.106 0 0 0 .413-.019.665.665 0 0 0 .346-.125.462.462 0 0 0 .156-.369 2.458 2.458 0 0 1 .106-.5.369.369 0 0 1 .4-.252.426.426 0 0 1 .382.163.741.741 0 0 1 .106.413 1.724 1.724 0 0 1-.338 1.222 1.7 1.7 0 0 1-1.227.346zm3.419-6.74a.746.746 0 0 1-.463-.175 2.7 2.7 0 0 1-.419-.407 12.912 12.912 0 0 1-.321-.394 5.688 5.688 0 0 1-.563-.964 6.038 6.038 0 0 1-.352-1.053 1.445 1.445 0 0 0-.119-.313.277.277 0 0 0-.269-.163 4.448 4.448 0 0 0-.463 0 .971.971 0 0 1-.451-.075.383.383 0 0 1-.188-.388.42.42 0 0 1 .152-.363.617.617 0 0 1 .388-.113h.839a.925.925 0 0 1 .613.163 1.023 1.023 0 0 1 .277.563 5.433 5.433 0 0 0 .5 1.371 4.468 4.468 0 0 0 .9 1.147 3.932 3.932 0 0 1 .277.282.515.515 0 0 1 .15.344.629.629 0 0 1-.113.388.44.44 0 0 1-.376.153zm-2.441 4.1a.35.35 0 0 1-.288-.144 2.06 2.06 0 0 1-.188-.282q-.037-.089-.15-.294a7.237 7.237 0 0 1-.207-.413.951.951 0 0 1-.094-.271.316.316 0 0 1 .133-.294.6.6 0 0 1 .319-.081.455.455 0 0 1 .3.156 2.028 2.028 0 0 1 .307.388 3.91 3.91 0 0 1 .244.451.906.906 0 0 1 .1.344.4.4 0 0 1-.133.332.526.526 0 0 1-.343.108zm2.441 1.754a.37.37 0 0 1-.3-.163 1.624 1.624 0 0 1-.213-.371 6.291 6.291 0 0 0-.15-.33c-.2-.444-.409-.9-.626-1.366l-.025-.138a.307.307 0 0 1 .144-.294.664.664 0 0 1 .33-.083.457.457 0 0 1 .3.188 3.585 3.585 0 0 1 .35.482 7.603 7.603 0 0 1 .595 1.197 1.231 1.231 0 0 1 .1.376.443.443 0 0 1-.506.502z" transform="translate(100.923 -13.136)" style="fill:#252525"/>
                    <path data-name="Path 188" d="M149.308 18.37a.461.461 0 0 1-.407-.169.748.748 0 0 1-.119-.444.519.519 0 0 1 .213-.421 2.211 2.211 0 0 1 .482-.288c.179-.079.332-.148.457-.206a9.709 9.709 0 0 0 2.122-1.391 16.955 16.955 0 0 0 1.8-1.8 2.331 2.331 0 0 1 .352-.332.712.712 0 0 1 .449-.158 1.049 1.049 0 0 1 .407.083.331.331 0 0 1 .194.344.3.3 0 0 1-.019.106.791.791 0 0 1-.042.108 15.031 15.031 0 0 0 1.483 1.266 12.352 12.352 0 0 0 1.565.982q.821.432 1.773.822a1.491 1.491 0 0 1 .388.23.5.5 0 0 1 .177.407.751.751 0 0 1-.138.476.539.539 0 0 1-.451.175 2.281 2.281 0 0 1-.939-.269 9.91 9.91 0 0 1-1.214-.7c-.436-.288-.864-.6-1.291-.92s-.811-.638-1.152-.934-.609-.542-.8-.734a12.844 12.844 0 0 1-1.829 1.748 16.456 16.456 0 0 1-2.092 1.421c-.085.05-.215.123-.4.219s-.361.184-.546.263a1.186 1.186 0 0 1-.423.116zm2.128 6.15a1.13 1.13 0 0 1-1.277-1.277v-2.23a1.124 1.124 0 0 1 1.266-1.277h6.513a1.13 1.13 0 0 1 1.277 1.277v2.23a1.13 1.13 0 0 1-1.277 1.277zm.227-6.137a.681.681 0 0 1-.407-.113.449.449 0 0 1-.158-.388.47.47 0 0 1 .158-.4.657.657 0 0 1 .407-.119h6.1a.683.683 0 0 1 .421.119.469.469 0 0 1 .156.4.441.441 0 0 1-.161.388.719.719 0 0 1-.415.113zm.325 5.084h5.4a.581.581 0 0 0 .663-.651V21.44a.581.581 0 0 0-.663-.651h-5.4a.581.581 0 0 0-.663.651v1.377a.581.581 0 0 0 .663.651z" transform="translate(107.071 -13.147)" style="fill:#252525"/>
                    <path data-name="Path 189" d="M155.924 19.4a.417.417 0 0 1-.465-.476 1.019 1.019 0 0 1 .033-.232 1.86 1.86 0 0 0 .042-.23 12.129 12.129 0 0 0 .138-1.222q.037-.608.038-1.222a3.858 3.858 0 0 1 .025-.394 1.373 1.373 0 0 1 .119-.446.326.326 0 0 1 .319-.2.373.373 0 0 1 .332.138.615.615 0 0 1 .094.35V16c0 .238-.006.507-.013.809s-.019.6-.031.9-.031.565-.056.8a2.43 2.43 0 0 1-.1.532.473.473 0 0 1-.475.359zm1.879 5.561a.459.459 0 0 1-.382-.15.621.621 0 0 1-.119-.4v-10.7a.619.619 0 0 1 .119-.4.557.557 0 0 1 .764 0 .63.63 0 0 1 .119.4v10.7a.632.632 0 0 1-.119.4.462.462 0 0 1-.385.153zm1.652-8.167a.363.363 0 0 1-.244-.081.669.669 0 0 1-.156-.207 5.358 5.358 0 0 1-.133-.244l-.2-.388a13.173 13.173 0 0 1-.188-.375.734.734 0 0 1-.081-.219q0-.34.375-.34a.478.478 0 0 1 .288.177 3.666 3.666 0 0 1 .357.424 4.26 4.26 0 0 1 .3.476.841.841 0 0 1 .119.338.387.387 0 0 1-.438.445zm.127 1.179a.566.566 0 0 1-.332-.094.369.369 0 0 1-.133-.321.365.365 0 0 1 .133-.319.553.553 0 0 1 .332-.094h3.156v-.776h-2.028a.551.551 0 0 1-.327-.088.34.34 0 0 1-.125-.3.346.346 0 0 1 .125-.3.565.565 0 0 1 .327-.088h2.028v-.738h-2.655c-.3 0-.451-.138-.451-.415s.15-.413.451-.413h2.655c0-.14 0-.279.006-.413a.563.563 0 0 1 .108-.332.468.468 0 0 1 .388-.131.452.452 0 0 1 .382.131.6.6 0 0 1 .1.332c0 .134.006.273.006.413h2.731a.651.651 0 0 1 .35.088.452.452 0 0 1 0 .651.634.634 0 0 1-.35.088h-2.731v.738h2.18a.619.619 0 0 1 .33.083.42.42 0 0 1 0 .613.6.6 0 0 1-.33.083h-2.18v.776h3.072a.547.547 0 0 1 .338.094.377.377 0 0 1 .125.319.381.381 0 0 1-.125.321.56.56 0 0 1-.338.094zm1.026 6.938a.455.455 0 0 1-.38-.15.621.621 0 0 1-.119-.4v-4.81a.853.853 0 0 1 .951-.978h4.172a1.2 1.2 0 0 1 .845.232 1.2 1.2 0 0 1 .231.845v4.1a.985.985 0 0 1-1.114 1.114h-.826c-.344 0-.515-.181-.515-.54a.465.465 0 0 1 .152-.413.66.66 0 0 1 .369-.1h.419a.924.924 0 0 0 .357-.061c.1-.042.144-.142.144-.3v-1h-4.184v1.917a.621.621 0 0 1-.119.4.457.457 0 0 1-.384.147zm.5-4.8h4.184v-.39a.326.326 0 0 0-.363-.375h-3.444a.332.332 0 0 0-.376.375zm0 1.565h4.184v-.8h-4.184z" transform="translate(113.219 -13.153)" style="fill:#252525"/>
                    <path data-name="Path 190" d="M165 24.964a.431.431 0 0 1-.375-.156.665.665 0 0 1-.113-.4v-2h-1.54a.7.7 0 0 1-.388-.1.406.406 0 0 1-.15-.363.43.43 0 0 1 .15-.365.628.628 0 0 1 .388-.111h1.54v-1.251h-1.779a.633.633 0 0 1-.388-.113.424.424 0 0 1-.15-.363.389.389 0 0 1 .206-.4 1.123 1.123 0 0 1 .482-.075c.184.008.342.013.476.013l-.338-1.754c-.125 0-.257 0-.394-.006a.676.676 0 0 1-.352-.1.391.391 0 0 1-.144-.355.407.407 0 0 1 .15-.365.707.707 0 0 1 .39-.1h1.84v-1.2h-1.416a.681.681 0 0 1-.388-.1.515.515 0 0 1 0-.726.681.681 0 0 1 .388-.1h1.416c0-.109-.006-.236-.019-.382a2.319 2.319 0 0 1 .006-.432.707.707 0 0 1 .138-.357.432.432 0 0 1 .363-.144.458.458 0 0 1 .376.138.666.666 0 0 1 .138.35 2.317 2.317 0 0 1 .006.432 4.522 4.522 0 0 0-.019.4h1.441a.72.72 0 0 1 .4.1.5.5 0 0 1 0 .726.72.72 0 0 1-.4.1H165.5v1.2h1.928a.707.707 0 0 1 .39.1.407.407 0 0 1 .15.365.394.394 0 0 1-.169.38.77.77 0 0 1-.4.088q-.23-.006-.432-.006a14.935 14.935 0 0 1-.163.839c-.05.217-.092.413-.131.588s-.061.284-.069.327c.1 0 .223-.006.369-.013a3.143 3.143 0 0 1 .426.006.707.707 0 0 1 .352.125.4.4 0 0 1 .144.346.416.416 0 0 1-.158.369.684.684 0 0 1-.394.108H165.5v1.243h1.554a.623.623 0 0 1 .394.111.439.439 0 0 1 .144.365.406.406 0 0 1-.15.363.7.7 0 0 1-.388.1H165.5v2a.632.632 0 0 1-.119.4.457.457 0 0 1-.381.155zm-.726-5.686h1.426c.067-.294.129-.586.182-.878s.1-.584.133-.876h-2.067a2.806 2.806 0 0 1 .125.5c.042.232.079.467.113.7s.061.42.086.554zm4.485 5.647a.469.469 0 0 1-.4-.156.677.677 0 0 1-.119-.419v-9.67a.875.875 0 0 1 .978-1h3.256a.891.891 0 0 1 1 1.014v1.366a1.2 1.2 0 0 1-.244.8 1.355 1.355 0 0 1-.626.413 3.364 3.364 0 0 1-.814.158c-.288.021-.563.031-.82.031a.928.928 0 0 1-.471-.113.436.436 0 0 1-.194-.413.426.426 0 0 1 .207-.419 1.122 1.122 0 0 1 .519-.108h.615a1.252 1.252 0 0 0 .62-.111c.121-.077.181-.273.181-.59 0-.117 0-.255.013-.419a1.025 1.025 0 0 0-.063-.432.331.331 0 0 0-.35-.188h-2.38a.39.39 0 0 0-.415.413v2.881h3.457a1.57 1.57 0 0 1 .651.131.55.55 0 0 1 .288.559 3.224 3.224 0 0 1-.156.907 9.6 9.6 0 0 1-.4 1.078c-.163.373-.334.722-.513 1.053a9.408 9.408 0 0 1-.5.82 6.071 6.071 0 0 0 1.241 1.014 2.675 2.675 0 0 1 .394.288.542.542 0 0 1 .219.413.681.681 0 0 1-.111.407.448.448 0 0 1-.39.158 1.065 1.065 0 0 1-.519-.163 3.394 3.394 0 0 1-.557-.407c-.184-.163-.353-.325-.509-.488s-.28-.3-.38-.407c-.06.075-.159.19-.3.344s-.3.319-.476.5a4.956 4.956 0 0 1-.5.444.714.714 0 0 1-.388.182.426.426 0 0 1-.382-.163.735.735 0 0 1-.106-.4.369.369 0 0 1 .081-.238 1.637 1.637 0 0 1 .169-.175l.665-.588a5.311 5.311 0 0 0 .615-.651 5.974 5.974 0 0 1-.382-.6q-.208-.363-.4-.778a6.03 6.03 0 0 1-.313-.8 2.406 2.406 0 0 1-.119-.69.381.381 0 0 1 .133-.325.546.546 0 0 1 .344-.1.373.373 0 0 1 .325.136 1 1 0 0 1 .152.338 6.949 6.949 0 0 0 .35 1.033 5.778 5.778 0 0 0 .526.958c.085-.125.188-.3.313-.538s.25-.482.376-.745a7.679 7.679 0 0 0 .313-.759 1.916 1.916 0 0 0 .125-.576.177.177 0 0 0-.081-.169.387.387 0 0 0-.182-.042h-3.069v5.409a.807.807 0 0 1-.106.426.421.421 0 0 1-.393.167z" transform="translate(119.362 -13.153)" style="fill:#252525"/>
                    <path data-name="Path 191" d="M173.028 24.143a.537.537 0 0 1-.615-.6.447.447 0 0 1 .277-.424 2.832 2.832 0 0 1 .5-.2 8.676 8.676 0 0 0 1.529-.576 3.384 3.384 0 0 0 1.227-1.039 2.533 2.533 0 0 0 .388-.864 7.6 7.6 0 0 0 .2-1.114q.06-.591.081-1.147a30.6 30.6 0 0 0 .019-.958h-4.109v2.893a.949.949 0 0 1-.125.5.485.485 0 0 1-.451.207.468.468 0 0 1-.438-.207.932.932 0 0 1-.127-.5v-2.897h-1.765a.935.935 0 0 1-.482-.119.454.454 0 0 1-.207-.432.47.47 0 0 1 .2-.444.923.923 0 0 1 .488-.119h1.765v-1.967a.891.891 0 0 1 .127-.488.472.472 0 0 1 .438-.2.5.5 0 0 1 .451.194.912.912 0 0 1 .125.5V16.1h4.109v-1.964a.9.9 0 0 1 .125-.5.5.5 0 0 1 .451-.194.47.47 0 0 1 .444.2.942.942 0 0 1 .119.488v1.97h1.842a.928.928 0 0 1 .488.119.473.473 0 0 1 .2.444.461.461 0 0 1-.2.432.928.928 0 0 1-.488.119h-1.842q0 1.04-.044 1.948a6.94 6.94 0 0 1-.275 1.673 3.924 3.924 0 0 1-.784 1.408 4.982 4.982 0 0 1-1.577 1.16 36.94 36.94 0 0 1-.626.3 7.651 7.651 0 0 1-.764.307 2.188 2.188 0 0 1-.674.133z" transform="translate(125.624 -12.883)" style="fill:#252525"/>
                    <path data-name="Path 192" d="M181.89 24.39a.5.5 0 0 1-.476-.219 1.056 1.056 0 0 1-.125-.534v-5.622a33.498 33.498 0 0 1-3.064 1.77 11.851 11.851 0 0 1-1.108.5 2.331 2.331 0 0 1-.789.194.508.508 0 0 1-.43-.169.7.7 0 0 1-.133-.444.494.494 0 0 1 .15-.363 1.407 1.407 0 0 1 .288-.158 18.868 18.868 0 0 1 1.176-.501c.185-.071.294-.119.344-.144a18.757 18.757 0 0 0 3.408-1.953 17.148 17.148 0 0 0 2.906-2.643c.092-.108.213-.236.363-.382a.668.668 0 0 1 .463-.219.7.7 0 0 1 .451.133.508.508 0 0 1 .163.419 1.034 1.034 0 0 1-.252.563 6.185 6.185 0 0 1-.638.72q-.389.383-.809.745a31.534 31.534 0 0 1-1.271 1.052v6.5a1.019 1.019 0 0 1-.131.534.519.519 0 0 1-.486.221z" transform="translate(131.917 -12.829)" style="fill:#252525"/>
                    <path data-name="Path 193" d="M184.726 24.353a.512.512 0 0 1-.471-.206.964.964 0 0 1-.131-.521v-9.505a1 1 0 0 1 .131-.526.508.508 0 0 1 .471-.213.486.486 0 0 1 .463.219 1.024 1.024 0 0 1 .125.521v2.568c.152.058.388.158.715.3s.693.309 1.1.5.826.4 1.252.626.818.453 1.177.682a5.93 5.93 0 0 1 .87.659.85.85 0 0 1 .332.551.6.6 0 0 1-.175.469.705.705 0 0 1-.49.158.764.764 0 0 1-.424-.152 3.963 3.963 0 0 1-.376-.275 15.848 15.848 0 0 0-1.892-1.333 12.5 12.5 0 0 0-2.092-1.008v5.76a.988.988 0 0 1-.125.515.493.493 0 0 1-.46.211z" transform="translate(139.615 -12.943)" style="fill:#252525"/>
                </g>
            </g>
        </g>
    </g>
</svg>
